<svg xmlns="http://www.w3.org/2000/svg" width="115" height="114" viewBox="0 0 115 114">
  <g id="Group_496" data-name="Group 496" transform="translate(-454 -2554)">
    <ellipse id="Ellipse_41" data-name="Ellipse 41" cx="57.5" cy="57" rx="57.5" ry="57" transform="translate(454 2554)" fill="#0e1e42"/>
    <g id="Icon_material-pool" data-name="Icon material-pool" transform="translate(487.445 2590.5)">
      <path id="Path_1401" data-name="Path 1401" d="M44.11,41.5a7.863,7.863,0,0,1-4.481-1.316,3.859,3.859,0,0,0-2.364-.74,3.691,3.691,0,0,0-2.364.74,8.29,8.29,0,0,1-8.962,0,3.859,3.859,0,0,0-2.364-.74,3.691,3.691,0,0,0-2.364.74,8,8,0,0,1-4.5,1.316,7.863,7.863,0,0,1-4.481-1.316,3.732,3.732,0,0,0-2.364-.74,3.732,3.732,0,0,0-2.364.74A8,8,0,0,1,3,41.5V37.388a3.691,3.691,0,0,0,2.364-.74,8,8,0,0,1,4.5-1.316,7.863,7.863,0,0,1,4.481,1.316,3.691,3.691,0,0,0,2.364.74,3.691,3.691,0,0,0,2.364-.74,8,8,0,0,1,4.5-1.316,7.863,7.863,0,0,1,4.481,1.316,3.859,3.859,0,0,0,2.364.74,3.732,3.732,0,0,0,2.364-.74,8.29,8.29,0,0,1,8.962,0,3.691,3.691,0,0,0,2.364.74Zm0-9.25a7.863,7.863,0,0,1-4.481-1.316,3.859,3.859,0,0,0-2.364-.74,3.691,3.691,0,0,0-2.364.74,8.29,8.29,0,0,1-8.962,0,3.859,3.859,0,0,0-2.364-.74,3.691,3.691,0,0,0-2.364.74,7.863,7.863,0,0,1-4.481,1.316,7.863,7.863,0,0,1-4.481-1.316,3.859,3.859,0,0,0-2.364-.74,3.732,3.732,0,0,0-2.364.74A8.135,8.135,0,0,1,3,32.25V28.139a3.691,3.691,0,0,0,2.364-.74,7.863,7.863,0,0,1,4.481-1.316A7.863,7.863,0,0,1,14.326,27.4a3.859,3.859,0,0,0,2.364.74,3.691,3.691,0,0,0,2.364-.74,7.863,7.863,0,0,1,4.481-1.316A7.863,7.863,0,0,1,28.016,27.4a3.859,3.859,0,0,0,2.364.74,3.732,3.732,0,0,0,2.364-.74,8.29,8.29,0,0,1,8.962,0,3.859,3.859,0,0,0,2.364.74V32.25ZM16.71,23a3.691,3.691,0,0,0,2.364-.74,8,8,0,0,1,4.5-1.316,7.863,7.863,0,0,1,4.481,1.316,3.859,3.859,0,0,0,2.364.74,3.732,3.732,0,0,0,2.364-.74c.247-.144.534-.308.843-.473L20.431,8.611C17.245,5.425,14.305,4.48,9.167,4.5V9.639c3.741-.021,5.94.8,8.222,3.083l2.056,2.056-6.68,6.68a11.247,11.247,0,0,1,1.583.8A3.691,3.691,0,0,0,16.71,23Z" transform="translate(0 0)" fill="#1a47bc"/>
      <path id="Path_1402" data-name="Path 1402" d="M31.278,9.639A5.139,5.139,0,1,1,26.139,4.5a5.139,5.139,0,0,1,5.139,5.139Z" transform="translate(6.666 0)" fill="#1a47bc"/>
    </g>
  </g>
</svg>
