<svg xmlns="http://www.w3.org/2000/svg" width="115" height="114" viewBox="0 0 115 114">
  <g id="Group_504" data-name="Group 504" transform="translate(-860 -2554)">
    <ellipse id="Ellipse_43" data-name="Ellipse 43" cx="57.5" cy="57" rx="57.5" ry="57" transform="translate(860 2554)" fill="#0e1e42"/>
    <path id="forecast-io-clear-day" d="M0,26.988a2.139,2.139,0,0,1,.644-1.572,2.178,2.178,0,0,1,1.524-.62H7.361a1.9,1.9,0,0,1,1.466.644,2.224,2.224,0,0,1,.584,1.548,2.181,2.181,0,0,1-.584,1.536,1.911,1.911,0,0,1-1.466.632H2.168a2.08,2.08,0,0,1-1.524-.644A2.091,2.091,0,0,1,0,26.988Zm7.265,17.6a2.251,2.251,0,0,1,.6-1.548l3.74-3.621a1.984,1.984,0,0,1,1.5-.6,2.121,2.121,0,0,1,1.512.572,1.909,1.909,0,0,1,.608,1.454,2.351,2.351,0,0,1-.62,1.62l-3.621,3.621a2.307,2.307,0,0,1-3.12,0,2.139,2.139,0,0,1-.6-1.5Zm0-35.183a2.251,2.251,0,0,1,.6-1.548,2.465,2.465,0,0,1,1.62-.62,2.147,2.147,0,0,1,1.5.62L14.6,11.6a1.945,1.945,0,0,1,.62,1.5,2.078,2.078,0,0,1-2.12,2.121,1.945,1.945,0,0,1-1.5-.62L7.86,10.982a2.229,2.229,0,0,1-.6-1.572Zm6.479,17.579a12.892,12.892,0,0,1,1.787-6.611,13.237,13.237,0,0,1,4.848-4.845,12.931,12.931,0,0,1,6.611-1.787,12.771,12.771,0,0,1,5.121,1.061,13.48,13.48,0,0,1,4.229,2.835,13.264,13.264,0,0,1,2.823,4.227,13.152,13.152,0,0,1-.726,11.744,13.12,13.12,0,0,1-4.824,4.823,13.245,13.245,0,0,1-13.245,0,13.231,13.231,0,0,1-4.835-4.823,12.881,12.881,0,0,1-1.787-6.623Zm4.311,0a8.691,8.691,0,0,0,2.609,6.348,8.579,8.579,0,0,0,6.326,2.634,8.988,8.988,0,0,0,8.981-8.981,8.475,8.475,0,0,0-2.633-6.264,8.72,8.72,0,0,0-6.348-2.6,8.644,8.644,0,0,0-6.312,2.6,8.5,8.5,0,0,0-2.621,6.264Zm6.765,19.748a2.051,2.051,0,0,1,.632-1.524,2.229,2.229,0,0,1,3.084,0,2.071,2.071,0,0,1,.62,1.524v5.051a2.159,2.159,0,0,1-.632,1.572,2.155,2.155,0,0,1-3.072,0,2.159,2.159,0,0,1-.632-1.572Zm0-39.375V2.168A2.08,2.08,0,0,1,25.463.644a2.126,2.126,0,0,1,3.048,0,2.086,2.086,0,0,1,.644,1.524V7.361a1.911,1.911,0,0,1-.632,1.466,2.311,2.311,0,0,1-3.071,0,1.9,1.9,0,0,1-.631-1.466ZM38.849,40.85a1.993,1.993,0,0,1,2-2.025,2.064,2.064,0,0,1,1.524.6l3.716,3.621a2.206,2.206,0,0,1,.619,1.548,2.043,2.043,0,0,1-.619,1.5,2.25,2.25,0,0,1-3.05,0l-3.621-3.621a2.349,2.349,0,0,1-.572-1.62Zm0-27.75a1.979,1.979,0,0,1,.572-1.5l3.621-3.74a2.15,2.15,0,0,1,1.5-.62,2.071,2.071,0,0,1,1.536.644,2.1,2.1,0,0,1,.631,1.524,2.13,2.13,0,0,1-.619,1.572L42.374,14.6a2.235,2.235,0,0,1-1.524.62,1.881,1.881,0,0,1-1.43-.608,2.121,2.121,0,0,1-.572-1.512Zm5.741,13.887a2.235,2.235,0,0,1,.619-1.572,1.99,1.99,0,0,1,1.454-.62h5.145A2.24,2.24,0,0,1,54,26.987a2.057,2.057,0,0,1-.656,1.524,2.126,2.126,0,0,1-1.536.644H46.662a1.949,1.949,0,0,1-1.478-.632,2.157,2.157,0,0,1-.6-1.536Z" transform="translate(890.5 2584)" fill="#1a47bc"/>
  </g>
</svg>
