<svg xmlns="http://www.w3.org/2000/svg" width="115" height="114" viewBox="0 0 115 114">
  <g id="Group_497" data-name="Group 497" transform="translate(-663 -2554)">
    <ellipse id="Ellipse_42" data-name="Ellipse 42" cx="57.5" cy="57" rx="57.5" ry="57" transform="translate(663 2554)" fill="#0e1e42"/>
    <path id="Icon_awesome-swimming-pool" data-name="Icon awesome-swimming-pool" d="M43.875,29.25H42.75a5.93,5.93,0,0,1-3.944-1.259A3.331,3.331,0,0,0,36.572,27H35.426a3.331,3.331,0,0,0-2.234.991A5.923,5.923,0,0,1,29.25,29.25a5.93,5.93,0,0,1-3.944-1.259A3.331,3.331,0,0,0,23.072,27H21.926a3.331,3.331,0,0,0-2.234.991A5.923,5.923,0,0,1,15.75,29.25a5.93,5.93,0,0,1-3.944-1.259A3.331,3.331,0,0,0,9.572,27H8.426a3.331,3.331,0,0,0-2.234.991A5.923,5.923,0,0,1,2.25,29.25H1.125A1.125,1.125,0,0,0,0,30.375v2.25A1.125,1.125,0,0,0,1.125,33.75H2.25A10.484,10.484,0,0,0,9,31.511a10.48,10.48,0,0,0,6.75,2.239,10.484,10.484,0,0,0,6.75-2.239,10.48,10.48,0,0,0,6.75,2.239A10.484,10.484,0,0,0,36,31.511a10.48,10.48,0,0,0,6.75,2.239h1.125A1.125,1.125,0,0,0,45,32.625v-2.25A1.125,1.125,0,0,0,43.875,29.25ZM15.75,27V20.25h13.5V27a3.852,3.852,0,0,0,2.418-.662,6.078,6.078,0,0,1,2.082-1.271V9a2.25,2.25,0,0,1,4.5,0v1.125a1.125,1.125,0,0,0,1.125,1.125h2.25a1.125,1.125,0,0,0,1.125-1.125V9a6.75,6.75,0,0,0-13.5,0v6.75H15.75V9a2.25,2.25,0,0,1,4.5,0v1.125a1.125,1.125,0,0,0,1.125,1.125h2.25a1.125,1.125,0,0,0,1.125-1.125V9a6.75,6.75,0,0,0-13.5,0V25.066a6.089,6.089,0,0,1,2.082,1.271A3.846,3.846,0,0,0,15.75,27Z" transform="translate(697.5 2592.75)" fill="#1a47bc"/>
  </g>
</svg>
