<svg xmlns="http://www.w3.org/2000/svg" width="115" height="114" viewBox="0 0 115 114">
  <g id="Group_495" data-name="Group 495" transform="translate(-242 -2554)">
    <ellipse id="Ellipse_37" data-name="Ellipse 37" cx="57.5" cy="57" rx="57.5" ry="57" transform="translate(242 2554)" fill="#0e1e42"/>
    <path id="soccer-ball-o" d="M16.992,22.768,25,16.964l8.008,5.8-3.042,9.375H20.061ZM25,0a24.445,24.445,0,0,1,9.71,1.981,24.56,24.56,0,0,1,13.31,13.31,24.791,24.791,0,0,1,0,19.419,24.56,24.56,0,0,1-13.31,13.31,24.791,24.791,0,0,1-19.419,0A24.56,24.56,0,0,1,1.981,34.71a24.791,24.791,0,0,1,0-19.419A24.56,24.56,0,0,1,15.29,1.981,24.445,24.445,0,0,1,25,0ZM42.271,37.668A20.9,20.9,0,0,0,46.428,25v-.083L43.582,27.4l-6.7-6.25,1.758-9.013,3.739.335A21,21,0,0,0,31.529,4.6l1.479,3.46L25,12.5,16.992,8.064,18.471,4.6A21,21,0,0,0,7.617,12.472l3.767-.335,1.731,9.013-6.7,6.25L3.572,24.917V25A20.9,20.9,0,0,0,7.729,37.668l.838-3.683,9.1,1.117,3.878,8.315L18.3,45.342a21.157,21.157,0,0,0,13.392,0L28.46,43.417,32.338,35.1l9.1-1.117Z" transform="translate(275 2586)" fill="#1a47bc"/>
  </g>
</svg>
