<svg xmlns="http://www.w3.org/2000/svg" width="115" height="114" viewBox="0 0 115 114">
  <g id="Group_501" data-name="Group 501" transform="translate(-663 -2800)">
    <ellipse id="Ellipse_42" data-name="Ellipse 42" cx="57.5" cy="57" rx="57.5" ry="57" transform="translate(663 2800)" fill="#0e1e42"/>
    <g id="casino" transform="translate(696.875 2833.875)">
      <path id="Path_1406" data-name="Path 1406" d="M45.8,24.581,41.127,3.464A2.987,2.987,0,0,0,37.568,1.2L16.451,5.873a2.983,2.983,0,0,0-2.267,3.559l1.96,8.848H4.108a2.987,2.987,0,0,0-2.983,2.983v21.63a2.987,2.987,0,0,0,2.983,2.983h21.63a2.987,2.987,0,0,0,2.983-2.983V31.421l14.816-3.282A2.987,2.987,0,0,0,45.8,24.582ZM25.738,42.892H4.108V21.263H16.8l2.057,9.287a2.978,2.978,0,0,0,3.557,2.267l3.319-.735,0,10.809ZM42.893,25.226,21.775,29.9,17.1,8.788,38.214,4.108l4.679,21.117Z" transform="translate(0 0)" fill="#1a47bc"/>
      <path id="Path_1407" data-name="Path 1407" d="M5.625,18.563h3.73v3.73H5.625Z" transform="translate(1.467 5.684)" fill="#1a47bc"/>
      <path id="Path_1408" data-name="Path 1408" d="M5.625,27.563h3.73v3.73H5.625Z" transform="translate(1.467 8.617)" fill="#1a47bc"/>
      <path id="Path_1409" data-name="Path 1409" d="M14.625,27.563h3.73v3.73h-3.73Z" transform="translate(4.4 8.617)" fill="#1a47bc"/>
      <path id="Path_1410" data-name="Path 1410" d="M10.125,23.063h3.73v3.73h-3.73Z" transform="translate(2.933 7.15)" fill="#1a47bc"/>
      <path id="Path_1411" data-name="Path 1411" d="M15.852,8.816l3.641-.806.806,3.641-3.641.806Z" transform="translate(4.8 2.244)" fill="#1a47bc"/>
      <path id="Path_1412" data-name="Path 1412" d="M26.587,15.652l3.641-.806.806,3.641-3.641.806Z" transform="translate(8.299 4.472)" fill="#1a47bc"/>
      <path id="Path_1413" data-name="Path 1413" d="M21.221,12.231l3.641-.806.806,3.641-3.641.806Z" transform="translate(6.55 3.357)" fill="#1a47bc"/>
    </g>
  </g>
</svg>
