<svg xmlns="http://www.w3.org/2000/svg" width="115" height="114" viewBox="0 0 115 114">
  <g id="Group_502" data-name="Group 502" transform="translate(-454 -2800)">
    <ellipse id="Ellipse_41" data-name="Ellipse 41" cx="57.5" cy="57" rx="57.5" ry="57" transform="translate(454 2800)" fill="#0e1e42"/>
    <g id="star" transform="translate(484.797 2830.878)">
      <path id="Path_1403" data-name="Path 1403" d="M9.7,49.676a1.8,1.8,0,0,0,2.525,2.006l14.851-7.632L41.92,51.682a1.8,1.8,0,0,0,2.525-2l-2.807-16L53.557,22.322a1.881,1.881,0,0,0-.958-3.213l-16.57-2.355L28.637,2.114a1.735,1.735,0,0,0-3.137,0L18.111,16.757,1.541,19.112a1.882,1.882,0,0,0-.958,3.213L12.5,33.679l-2.807,16ZM26.29,40.314,13.82,46.721l2.347-13.387a1.911,1.911,0,0,0-.552-1.708L5.784,22.254l13.709-1.949a1.776,1.776,0,0,0,1.329-.974L27.071,6.956l6.246,12.375a1.776,1.776,0,0,0,1.329.974l13.709,1.946-9.831,9.371a1.908,1.908,0,0,0-.552,1.713L40.32,46.721,27.85,40.314a1.7,1.7,0,0,0-1.559,0Z" transform="translate(0 0)" fill="#1a47bc" fill-rule="evenodd"/>
    </g>
  </g>
</svg>
