<svg xmlns="http://www.w3.org/2000/svg" width="115" height="114" viewBox="0 0 115 114">
  <g id="Group_498" data-name="Group 498" transform="translate(-1051 -2554)">
    <ellipse id="Ellipse_44" data-name="Ellipse 44" cx="57.5" cy="57" rx="57.5" ry="57" transform="translate(1051 2554)" fill="#0e1e42"/>
    <g id="droplet" transform="translate(1085.5 2586)">
      <path id="Path_1419" data-name="Path 1419" d="M20.782,2.5C22.282.922,23.25,0,23.25,0a33.84,33.84,0,0,0,1.16,3.244c2.538,6.081,6.478,10.469,9.99,14.375C38.494,22.175,42,26.078,42,31.25a18.75,18.75,0,1,1-37.5,0C4.5,20.837,15.688,7.865,20.782,2.5Zm1.29,3.19q-3.011,3.258-5.717,6.779a60.123,60.123,0,0,0-6.125,9.593A21.63,21.63,0,0,0,7.625,31.25a15.625,15.625,0,1,0,31.25,0c0-3.753-2.488-6.74-6.815-11.562l-.094-.1c-3.246-3.618-7.153-7.963-9.893-13.9Z" fill="#1a47bc" fill-rule="evenodd"/>
      <path id="Path_1420" data-name="Path 1420" d="M10.244,20.235a41.537,41.537,0,0,1,6.54-9.781L19,12.667a38.646,38.646,0,0,0-5.96,8.969l-2.793-1.4Z" transform="translate(2.234 4.065)" fill="#1a47bc" fill-rule="evenodd"/>
    </g>
  </g>
</svg>
