<svg xmlns="http://www.w3.org/2000/svg" width="115" height="114" viewBox="0 0 115 114">
  <g id="Group_500" data-name="Group 500" transform="translate(-860 -2800)">
    <ellipse id="Ellipse_43" data-name="Ellipse 43" cx="57.5" cy="57" rx="57.5" ry="57" transform="translate(860 2800)" fill="#0e1e42"/>
    <path id="sleep" d="M32.451,19.806H43.857a1.415,1.415,0,0,1,0,2.829H29.709a1.434,1.434,0,0,1-1.415-1.415,1.308,1.308,0,0,1,.443-1.017L41.115,2.829H29.709a1.36,1.36,0,0,1-.995-.42,1.36,1.36,0,0,1-.42-.995,1.36,1.36,0,0,1,.42-.995A1.36,1.36,0,0,1,29.709,0H43.857a1.279,1.279,0,0,1,.972.508,1.479,1.479,0,0,1,.443.907,1.734,1.734,0,0,1-.353.928ZM25.465,35.368a1.434,1.434,0,0,1-1.415,1.415H12.733a1.434,1.434,0,0,1-1.415-1.415,1.308,1.308,0,0,1,.443-1.017l9.55-11.715H12.733a1.415,1.415,0,0,1,0-2.829H24.05a1.279,1.279,0,0,1,.972.508,1.479,1.479,0,0,1,.443.907,1.734,1.734,0,0,1-.353.928l-9.638,11.8H24.05a1.434,1.434,0,0,1,1.415,1.415ZM8.488,43.857a1.434,1.434,0,0,1-1.415,1.415H1.415a1.36,1.36,0,0,1-.995-.42A1.36,1.36,0,0,1,0,43.857a1.308,1.308,0,0,1,.443-1.017l3.891-6.056H1.415a1.36,1.36,0,0,1-.995-.42,1.388,1.388,0,0,1,0-1.989,1.36,1.36,0,0,1,.995-.42H7.074a1.279,1.279,0,0,1,.972.508,1.479,1.479,0,0,1,.443.907,1.734,1.734,0,0,1-.353.928L4.156,42.442H7.074a1.434,1.434,0,0,1,1.415,1.415Z" transform="translate(895.364 2834.364)" fill="#1a47bc"/>
  </g>
</svg>
