<svg xmlns="http://www.w3.org/2000/svg" xmlns:xlink="http://www.w3.org/1999/xlink" width="179.637" height="108.88" viewBox="0 0 179.637 108.88">
  <defs>
    <clipPath id="clip-path">
      <rect id="Rectangle_97" data-name="Rectangle 97" width="179.637" height="108.88" fill="#fff"/>
    </clipPath>
  </defs>
  <g id="Group_329" data-name="Group 329" transform="translate(-336 -178)">
    <g id="Group_328" data-name="Group 328" transform="translate(336 178)">
      <rect id="Rectangle_96" data-name="Rectangle 96" width="1.311" height="7.578" transform="translate(30.544 101.198)" fill="#fff"/>
      <path id="Path_1289" data-name="Path 1289" d="M158.929,432.855v5.4l-3.388-5.4h-1.316v7.578h1.316v-5.376l3.378,5.376h1.317v-7.578Z" transform="translate(-118.168 -331.657)" fill="#fff"/>
      <g id="Group_327" data-name="Group 327">
        <g id="Group_326" data-name="Group 326" clip-path="url(#clip-path)">
          <path id="Path_1290" data-name="Path 1290" d="M202.736,437.623a2.739,2.739,0,0,1-.9,1.892,3.054,3.054,0,0,1-2.077.679,2.953,2.953,0,0,1-1.6-.43,2.814,2.814,0,0,1-1.064-1.22,4.4,4.4,0,0,1-.39-1.836V436a4.427,4.427,0,0,1,.38-1.889,2.861,2.861,0,0,1,1.09-1.26,3.04,3.04,0,0,1,1.642-.443,2.931,2.931,0,0,1,2.019.679,2.84,2.84,0,0,1,.89,1.924h-1.312a1.869,1.869,0,0,0-.476-1.179,1.575,1.575,0,0,0-1.121-.362,1.538,1.538,0,0,0-1.319.628,3.138,3.138,0,0,0-.471,1.841v.673a3.325,3.325,0,0,0,.44,1.875,1.458,1.458,0,0,0,1.288.646,1.7,1.7,0,0,0,1.166-.349,1.815,1.815,0,0,0,.494-1.161Z" transform="translate(-150.725 -331.315)" fill="#fff"/>
          <path id="Path_1291" data-name="Path 1291" d="M243.824,436.5a4.646,4.646,0,0,1-.385,1.954,2.91,2.91,0,0,1-1.1,1.291,3.226,3.226,0,0,1-3.289,0,2.951,2.951,0,0,1-1.114-1.283,4.5,4.5,0,0,1-.4-1.921v-.426a4.612,4.612,0,0,1,.393-1.957,2.957,2.957,0,0,1,1.108-1.3,3.235,3.235,0,0,1,3.284-.006,2.926,2.926,0,0,1,1.106,1.281,4.6,4.6,0,0,1,.4,1.943Zm-1.317-.4a3.312,3.312,0,0,0-.476-1.931,1.681,1.681,0,0,0-2.685,0,3.248,3.248,0,0,0-.492,1.892v.436a3.289,3.289,0,0,0,.487,1.931,1.566,1.566,0,0,0,1.351.682,1.55,1.55,0,0,0,1.345-.666,3.358,3.358,0,0,0,.471-1.947Z" transform="translate(-182.003 -331.315)" fill="#fff"/>
          <path id="Path_1292" data-name="Path 1292" d="M283.954,437.518h-1.468v2.914H281.17v-7.577h2.665a3.1,3.1,0,0,1,2.024.588,2.083,2.083,0,0,1,.713,1.7,2.134,2.134,0,0,1-.367,1.273,2.336,2.336,0,0,1-1.023.789l1.7,3.155v.068h-1.41Zm-1.468-1.062h1.353a1.5,1.5,0,0,0,1.041-.336,1.171,1.171,0,0,0,.375-.919,1.246,1.246,0,0,0-.346-.942,1.468,1.468,0,0,0-1.033-.343h-1.39Z" transform="translate(-215.435 -331.657)" fill="#fff"/>
          <path id="Path_1293" data-name="Path 1293" d="M322.151,437.623v2.81h-1.316v-7.578h2.9a2.929,2.929,0,0,1,2.017.662,2.224,2.224,0,0,1,.747,1.75,2.152,2.152,0,0,1-.732,1.735,3.073,3.073,0,0,1-2.048.62Zm0-1.062h1.582a1.558,1.558,0,0,0,1.072-.331,1.214,1.214,0,0,0,.369-.955,1.31,1.31,0,0,0-.374-.981,1.444,1.444,0,0,0-1.031-.377h-1.619Z" transform="translate(-245.826 -331.657)" fill="#fff"/>
          <path id="Path_1294" data-name="Path 1294" d="M366.4,436.5a4.647,4.647,0,0,1-.385,1.954,2.91,2.91,0,0,1-1.1,1.291,3.226,3.226,0,0,1-3.289,0,2.951,2.951,0,0,1-1.114-1.283,4.5,4.5,0,0,1-.4-1.921v-.426a4.612,4.612,0,0,1,.393-1.957,2.957,2.957,0,0,1,1.108-1.3,3.235,3.235,0,0,1,3.284-.006A2.926,2.926,0,0,1,366,434.135a4.6,4.6,0,0,1,.4,1.943Zm-1.317-.4a3.312,3.312,0,0,0-.476-1.931,1.681,1.681,0,0,0-2.685,0,3.247,3.247,0,0,0-.492,1.892v.436a3.289,3.289,0,0,0,.487,1.931,1.566,1.566,0,0,0,1.351.682,1.55,1.55,0,0,0,1.345-.666,3.358,3.358,0,0,0,.471-1.947Z" transform="translate(-275.921 -331.315)" fill="#fff"/>
          <path id="Path_1295" data-name="Path 1295" d="M406.53,437.518h-1.468v2.914h-1.316v-7.577h2.665a3.1,3.1,0,0,1,2.024.588,2.083,2.083,0,0,1,.713,1.7,2.134,2.134,0,0,1-.367,1.273,2.335,2.335,0,0,1-1.023.789l1.7,3.155v.068h-1.41Zm-1.468-1.062h1.353a1.505,1.505,0,0,0,1.041-.336,1.171,1.171,0,0,0,.375-.919,1.246,1.246,0,0,0-.346-.942,1.468,1.468,0,0,0-1.033-.343h-1.39Z" transform="translate(-309.354 -331.657)" fill="#fff"/>
          <path id="Path_1296" data-name="Path 1296" d="M446.892,438.668h-2.935l-.614,1.764h-1.369l2.863-7.577h1.181l2.867,7.577h-1.374Zm-2.566-1.061h2.2l-1.1-3.144Z" transform="translate(-338.644 -331.657)" fill="#fff"/>
          <path id="Path_1297" data-name="Path 1297" d="M486.594,440.433v-7.578h2.237a3.513,3.513,0,0,1,1.783.447,3.054,3.054,0,0,1,1.2,1.27,4.031,4.031,0,0,1,.427,1.884v.38a4.018,4.018,0,0,1-.429,1.895,3.017,3.017,0,0,1-1.223,1.259,3.673,3.673,0,0,1-1.819.442Zm1.316-6.516v5.464h.859a1.978,1.978,0,0,0,1.59-.648,2.823,2.823,0,0,0,.565-1.861v-.422a2.893,2.893,0,0,0-.536-1.884,1.9,1.9,0,0,0-1.556-.65Z" transform="translate(-372.832 -331.657)" fill="#fff"/>
          <path id="Path_1298" data-name="Path 1298" d="M532.583,436.5a4.646,4.646,0,0,1-.385,1.954,2.91,2.91,0,0,1-1.1,1.291,3.226,3.226,0,0,1-3.289,0,2.951,2.951,0,0,1-1.114-1.283,4.5,4.5,0,0,1-.4-1.921v-.426a4.612,4.612,0,0,1,.393-1.957,2.957,2.957,0,0,1,1.108-1.3,3.235,3.235,0,0,1,3.284-.006,2.926,2.926,0,0,1,1.106,1.281,4.6,4.6,0,0,1,.4,1.943Zm-1.317-.4a3.312,3.312,0,0,0-.476-1.931,1.681,1.681,0,0,0-2.685,0,3.247,3.247,0,0,0-.492,1.892v.436a3.289,3.289,0,0,0,.487,1.931,1.566,1.566,0,0,0,1.351.682,1.55,1.55,0,0,0,1.345-.666,3.358,3.358,0,0,0,.471-1.947Z" transform="translate(-403.252 -331.315)" fill="#fff"/>
          <path id="Path_1299" data-name="Path 1299" d="M572.713,437.518h-1.468v2.914h-1.316v-7.577h2.664a3.1,3.1,0,0,1,2.024.588,2.083,2.083,0,0,1,.713,1.7,2.134,2.134,0,0,1-.367,1.273,2.336,2.336,0,0,1-1.023.789l1.7,3.155v.068h-1.41Zm-1.468-1.062H572.6a1.5,1.5,0,0,0,1.041-.336,1.171,1.171,0,0,0,.375-.919,1.246,1.246,0,0,0-.346-.942,1.468,1.468,0,0,0-1.033-.343h-1.39Z" transform="translate(-436.684 -331.657)" fill="#fff"/>
          <path id="Path_1300" data-name="Path 1300" d="M613.075,438.668H610.14l-.614,1.764h-1.369l2.863-7.577H612.2l2.867,7.577h-1.374Zm-2.566-1.061h2.2l-1.1-3.144Z" transform="translate(-465.975 -331.657)" fill="#fff"/>
          <path id="Path_1301" data-name="Path 1301" d="M23.169,298.381a13.332,13.332,0,0,1-2.6,2.457,12.786,12.786,0,0,1-7.583,2.458,12.642,12.642,0,1,1,0-25.275,12.472,12.472,0,0,1,7.512,2.387,13.242,13.242,0,0,1,2.492,2.352l-2.457,2.457a8.344,8.344,0,0,0-1.861-1.825,9.354,9.354,0,0,0-5.687-1.861,9.127,9.127,0,0,0,0,18.254,9.443,9.443,0,0,0,5.757-1.931,8.588,8.588,0,0,0,1.966-1.93Z" transform="translate(0 -213.022)" fill="#fff"/>
          <path id="Path_1302" data-name="Path 1302" d="M139.28,279.52h4.212l9.829,24.573h-4.037l-2.457-6.318H135.945l-2.457,6.318h-4.037Zm6.143,14.744-4.037-10.18-4.037,10.18Z" transform="translate(-99.186 -214.171)" fill="#fff"/>
          <path id="Path_1303" data-name="Path 1303" d="M270.358,279.52h3.511l9.3,11.936,9.3-11.936h3.511v24.573h-3.862V286.014l-8.952,11.409-8.952-11.409v18.079h-3.862Z" transform="translate(-207.151 -214.17)" fill="#fff"/>
          <path id="Path_1304" data-name="Path 1304" d="M432.376,279.519H442.2a7.906,7.906,0,1,1,0,15.8h-5.968v8.777h-3.861Zm9.829,12.287a4.388,4.388,0,1,0,0-8.776h-5.968v8.776Z" transform="translate(-331.29 -214.17)" fill="#fff"/>
          <path id="Path_1305" data-name="Path 1305" d="M560.086,278.02A12.642,12.642,0,1,1,547.1,290.657a12.666,12.666,0,0,1,12.989-12.637m0,21.764a9.127,9.127,0,1,0-9.127-9.127,9.064,9.064,0,0,0,9.127,9.127" transform="translate(-419.19 -213.021)" fill="#fff"/>
          <path id="Path_1306" data-name="Path 1306" d="M695.921,296.976a6.272,6.272,0,0,0,1.474,1.4,8.1,8.1,0,0,0,4.669,1.4c3.194,0,4.914-1.72,4.914-3.686,0-5.441-12.989-2.106-12.989-11.233,0-3.686,3.195-6.845,8.425-6.845a10.816,10.816,0,0,1,5.757,1.579,8.088,8.088,0,0,1,1.966,1.579l-2.633,2.633a6.643,6.643,0,0,0-1.3-1.123,6.834,6.834,0,0,0-3.791-1.158c-2.984,0-4.563,1.545-4.563,3.335,0,5.442,12.989,2.106,12.989,11.233,0,3.862-3.335,7.2-8.776,7.2a11.959,11.959,0,0,1-6.635-1.826,9.18,9.18,0,0,1-2.141-1.86Z" transform="translate(-531.203 -213.021)" fill="#fff"/>
          <path id="Path_1307" data-name="Path 1307" d="M378.891,133.41v3.221l-.471.185-3.526-1.832Z" transform="translate(-287.247 -102.22)" fill="#fff"/>
          <path id="Path_1308" data-name="Path 1308" d="M494.406,153.866l-.041,6.184-5.4,2.149.019-6.206Z" transform="translate(-374.648 -117.893)" fill="#fff"/>
          <path id="Path_1309" data-name="Path 1309" d="M494.416,104.512l-.041,6.184-4.9,1.951-.5.2.016-6.2Z" transform="translate(-374.658 -80.078)" fill="#fff"/>
          <path id="Path_1310" data-name="Path 1310" d="M494.416,55.173l-.041,6.184-4.9,1.948-.5.2.016-6.206Z" transform="translate(-374.658 -42.274)" fill="#fff"/>
          <path id="Path_1311" data-name="Path 1311" d="M379.964,63.268,374.777,65.3l-21.729-9.841a.326.326,0,0,0-.085-.025.336.336,0,0,0-.091-.013.256.256,0,0,0-.06.01.175.175,0,0,0-.085.019l-8.154,3.2-4.154-2.159,12.462-5,21.694,10.152a.412.412,0,0,0,.317.01l.811-.324Z" transform="translate(-260.832 -39.453)" fill="#fff"/>
          <path id="Path_1312" data-name="Path 1312" d="M281.105,69.432v6.19L256.121,62.384v-6.19l23.96,12.695Z" transform="translate(-196.242 -43.056)" fill="#fff"/>
          <path id="Path_1313" data-name="Path 1313" d="M371.921,103.854v6.256l-5.414,2.134v-6.253Z" transform="translate(-280.821 -79.574)" fill="#fff"/>
          <path id="Path_1314" data-name="Path 1314" d="M371.921,202.547V208.8l-5.414,2.134v-6.253Z" transform="translate(-280.821 -155.193)" fill="#fff"/>
          <path id="Path_1315" data-name="Path 1315" d="M288.594,158.445l-5.226,2.061L258.5,147.331l3.808-1.5,20.727,10.979a.367.367,0,0,0,.079.072.424.424,0,0,0,.367.038l1.235-.487Z" transform="translate(-198.066 -111.735)" fill="#fff"/>
          <path id="Path_1316" data-name="Path 1316" d="M281.105,168.128v6.187l-24.984-13.238v-6.191Z" transform="translate(-196.242 -118.675)" fill="#fff"/>
          <path id="Path_1317" data-name="Path 1317" d="M420.327,112.617l-5.191,2.036L393.4,104.805l-.031-.013c-.016,0-.032,0-.057-.009l-.082-.013a.356.356,0,0,0-.079.013l-.057.009v-3.84a.284.284,0,0,0,0-.05l.148-.06L414.935,111a.331.331,0,0,0,.317.006l.811-.321Z" transform="translate(-301.191 -77.267)" fill="#fff"/>
          <path id="Path_1318" data-name="Path 1318" d="M416.51,131.592l-.016,6.184-21.063-9.86V122.04Z" transform="translate(-302.983 -93.508)" fill="#fff"/>
          <path id="Path_1319" data-name="Path 1319" d="M371.921,153.194v6.259l-5.414,2.134v-6.256Z" transform="translate(-280.821 -117.378)" fill="#fff"/>
          <path id="Path_1320" data-name="Path 1320" d="M281.105,118.785v6.19l-24.984-13.241v-6.188l24.513,12.987Z" transform="translate(-196.242 -80.871)" fill="#fff"/>
          <path id="Path_1321" data-name="Path 1321" d="M288.594,109.092l-5.226,2.061L258.5,97.978l3.808-1.5,20.727,10.979a.452.452,0,0,0,.075.072.433.433,0,0,0,.371.038l1.235-.487Z" transform="translate(-198.066 -73.921)" fill="#fff"/>
          <path id="Path_1322" data-name="Path 1322" d="M369.2,72.551v5.91l-.468.189-6.486-3.368Z" transform="translate(-277.556 -55.589)" fill="#fff"/>
          <path id="Path_1323" data-name="Path 1323" d="M416.51,82.249l-.019,6.184-21.059-9.857V72.7Z" transform="translate(-302.983 -55.703)" fill="#fff"/>
          <path id="Path_1324" data-name="Path 1324" d="M327.751,23.212v5.91l-13,5.21-6.6-3.428Z" transform="translate(-236.107 -17.785)" fill="#fff"/>
          <path id="Path_1325" data-name="Path 1325" d="M416.51,32.9l-.019,6.184-21.059-9.86V23.346Z" transform="translate(-302.983 -17.888)" fill="#fff"/>
          <path id="Path_1326" data-name="Path 1326" d="M317.2,12.276l-5.188,2.036L290.274,4.464l-.038-.013a.125.125,0,0,0-.041-.006.444.444,0,0,0-.17,0l-.044.006-20.993,8.242a.388.388,0,0,0-.255.349.4.4,0,0,0,.214.383l19.162,9.961.49.251L283.365,25.7,258.5,12.521,290.2,0Z" transform="translate(-198.065 0.001)" fill="#fff"/>
        </g>
      </g>
    </g>
  </g>
</svg>
