<svg xmlns="http://www.w3.org/2000/svg" xmlns:xlink="http://www.w3.org/1999/xlink" width="376" height="85.872" viewBox="0 0 376 85.872">
  <defs>
    <clipPath id="clip-path">
      <rect id="Rectangle_112" data-name="Rectangle 112" width="376" height="85.872" fill="none"/>
    </clipPath>
  </defs>
  <g id="Group_495" data-name="Group 495" transform="translate(-140 -3490)">
    <rect id="Rectangle_111" data-name="Rectangle 111" width="1.797" height="10.381" transform="translate(252.626 3565.348)" fill="#fff"/>
    <path id="Path_1357" data-name="Path 1357" d="M239.691,146.236v7.394l-4.642-7.394h-1.8v10.381h1.8v-7.365l4.627,7.365h1.8V146.236Z" transform="translate(26.933 3419.111)" fill="#fff"/>
    <g id="Group_373" data-name="Group 373" transform="translate(140 3490)">
      <g id="Group_372" data-name="Group 372" clip-path="url(#clip-path)">
        <path id="Path_1358" data-name="Path 1358" d="M267.909,153.1a3.754,3.754,0,0,1-1.226,2.592,4.184,4.184,0,0,1-2.845.931,4.047,4.047,0,0,1-2.186-.589,3.852,3.852,0,0,1-1.458-1.672,6.028,6.028,0,0,1-.534-2.516v-.97a6.071,6.071,0,0,1,.52-2.588,3.922,3.922,0,0,1,1.494-1.726,4.168,4.168,0,0,1,2.25-.606,4.014,4.014,0,0,1,2.766.931,3.889,3.889,0,0,1,1.22,2.635h-1.8a2.56,2.56,0,0,0-.652-1.615,2.159,2.159,0,0,0-1.537-.5,2.107,2.107,0,0,0-1.807.86,4.3,4.3,0,0,0-.645,2.522v.921a4.553,4.553,0,0,0,.6,2.568,2,2,0,0,0,1.764.885,2.331,2.331,0,0,0,1.6-.478,2.486,2.486,0,0,0,.677-1.59Z" transform="translate(-125.871 -70.754)" fill="#fff"/>
        <path id="Path_1359" data-name="Path 1359" d="M293.649,151.563a6.362,6.362,0,0,1-.528,2.677,3.99,3.99,0,0,1-1.508,1.768,4.42,4.42,0,0,1-4.506,0,4.044,4.044,0,0,1-1.526-1.757,6.168,6.168,0,0,1-.545-2.632v-.585a6.319,6.319,0,0,1,.538-2.68,4.047,4.047,0,0,1,1.518-1.779,4.433,4.433,0,0,1,4.5-.008,4.006,4.006,0,0,1,1.515,1.754,6.3,6.3,0,0,1,.542,2.663Zm-1.8-.542a4.535,4.535,0,0,0-.653-2.646,2.3,2.3,0,0,0-3.679,0,4.452,4.452,0,0,0-.674,2.592v.6a4.508,4.508,0,0,0,.667,2.645,2.145,2.145,0,0,0,1.851.934,2.122,2.122,0,0,0,1.843-.913,4.6,4.6,0,0,0,.645-2.667Z" transform="translate(-138.172 -70.754)" fill="#fff"/>
        <path id="Path_1360" data-name="Path 1360" d="M315.974,152.625h-2.011v3.993h-1.8V146.236h3.651a4.249,4.249,0,0,1,2.773.806,2.854,2.854,0,0,1,.977,2.335,2.921,2.921,0,0,1-.5,1.744,3.2,3.2,0,0,1-1.4,1.08l2.331,4.323v.093h-1.932Zm-2.011-1.455h1.854a2.062,2.062,0,0,0,1.426-.46,1.605,1.605,0,0,0,.514-1.259,1.708,1.708,0,0,0-.475-1.29,2.01,2.01,0,0,0-1.415-.47h-1.9Z" transform="translate(-151.321 -70.888)" fill="#fff"/>
        <path id="Path_1361" data-name="Path 1361" d="M338.62,152.768v3.85h-1.8V146.236h3.971a4.015,4.015,0,0,1,2.763.907,3.047,3.047,0,0,1,1.023,2.4,2.946,2.946,0,0,1-1,2.376,4.209,4.209,0,0,1-2.806.85Zm0-1.455h2.168a2.133,2.133,0,0,0,1.468-.453,1.663,1.663,0,0,0,.507-1.309,1.8,1.8,0,0,0-.513-1.344,1.981,1.981,0,0,0-1.412-.516H338.62Z" transform="translate(-163.273 -70.888)" fill="#fff"/>
        <path id="Path_1362" data-name="Path 1362" d="M369.848,151.563a6.362,6.362,0,0,1-.528,2.677,3.99,3.99,0,0,1-1.508,1.768,4.42,4.42,0,0,1-4.506,0,4.044,4.044,0,0,1-1.526-1.757,6.168,6.168,0,0,1-.545-2.632v-.585a6.318,6.318,0,0,1,.538-2.68,4.047,4.047,0,0,1,1.518-1.779,4.433,4.433,0,0,1,4.5-.008,4.006,4.006,0,0,1,1.515,1.754,6.3,6.3,0,0,1,.542,2.663Zm-1.8-.542a4.535,4.535,0,0,0-.653-2.646,2.3,2.3,0,0,0-3.679,0,4.453,4.453,0,0,0-.674,2.592v.6a4.508,4.508,0,0,0,.667,2.645,2.145,2.145,0,0,0,1.851.934,2.122,2.122,0,0,0,1.843-.913,4.6,4.6,0,0,0,.645-2.667Z" transform="translate(-175.11 -70.754)" fill="#fff"/>
        <path id="Path_1363" data-name="Path 1363" d="M392.173,152.625h-2.011v3.993h-1.8V146.236h3.651a4.249,4.249,0,0,1,2.773.806,2.854,2.854,0,0,1,.977,2.335,2.921,2.921,0,0,1-.5,1.744,3.2,3.2,0,0,1-1.4,1.08l2.331,4.323v.093h-1.932Zm-2.011-1.455h1.854a2.062,2.062,0,0,0,1.426-.46,1.605,1.605,0,0,0,.514-1.259,1.708,1.708,0,0,0-.475-1.29,2.01,2.01,0,0,0-1.415-.47h-1.9Z" transform="translate(-188.258 -70.888)" fill="#fff"/>
        <path id="Path_1364" data-name="Path 1364" d="M418.86,154.2h-4.022L414,156.617h-1.875l3.922-10.381h1.618l3.929,10.381h-1.883Zm-3.516-1.454h3.009l-1.5-4.307Z" transform="translate(-199.778 -70.888)" fill="#fff"/>
        <path id="Path_1365" data-name="Path 1365" d="M439.861,156.617V146.236h3.065a4.813,4.813,0,0,1,2.443.613,4.183,4.183,0,0,1,1.65,1.739,5.528,5.528,0,0,1,.585,2.581v.521a5.5,5.5,0,0,1-.588,2.6,4.128,4.128,0,0,1-1.676,1.725,5.029,5.029,0,0,1-2.491.606Zm1.8-8.926v7.486h1.177a2.71,2.71,0,0,0,2.177-.887,3.866,3.866,0,0,0,.773-2.549v-.578a3.963,3.963,0,0,0-.734-2.581,2.6,2.6,0,0,0-2.132-.891Z" transform="translate(-213.224 -70.888)" fill="#fff"/>
        <path id="Path_1366" data-name="Path 1366" d="M473.154,151.563a6.362,6.362,0,0,1-.528,2.677,3.989,3.989,0,0,1-1.508,1.768,4.42,4.42,0,0,1-4.506,0,4.044,4.044,0,0,1-1.526-1.757,6.168,6.168,0,0,1-.545-2.632v-.585a6.319,6.319,0,0,1,.538-2.68,4.047,4.047,0,0,1,1.518-1.779,4.433,4.433,0,0,1,4.5-.008,4.006,4.006,0,0,1,1.515,1.754,6.3,6.3,0,0,1,.542,2.663Zm-1.8-.542a4.535,4.535,0,0,0-.653-2.646,2.3,2.3,0,0,0-3.679,0,4.453,4.453,0,0,0-.674,2.592v.6a4.508,4.508,0,0,0,.667,2.645,2.145,2.145,0,0,0,1.851.934,2.122,2.122,0,0,0,1.843-.913,4.6,4.6,0,0,0,.645-2.667Z" transform="translate(-225.188 -70.754)" fill="#fff"/>
        <path id="Path_1367" data-name="Path 1367" d="M495.479,152.625h-2.011v3.993h-1.8V146.236h3.651a4.249,4.249,0,0,1,2.773.806,2.854,2.854,0,0,1,.977,2.335,2.921,2.921,0,0,1-.5,1.744,3.2,3.2,0,0,1-1.4,1.08l2.331,4.323v.093h-1.932Zm-2.011-1.455h1.854a2.062,2.062,0,0,0,1.426-.46,1.605,1.605,0,0,0,.514-1.259,1.708,1.708,0,0,0-.475-1.29,2.01,2.01,0,0,0-1.415-.47h-1.9Z" transform="translate(-238.336 -70.888)" fill="#fff"/>
        <path id="Path_1368" data-name="Path 1368" d="M522.167,154.2h-4.021l-.841,2.417h-1.875l3.922-10.381h1.618l3.929,10.381h-1.883Zm-3.516-1.454h3.01l-1.505-4.307Z" transform="translate(-249.856 -70.888)" fill="#fff"/>
        <path id="Path_1369" data-name="Path 1369" d="M246.456,75.345a19.815,19.815,0,0,1-3.857,3.648,18.989,18.989,0,0,1-11.259,3.649c-10.946,0-19.287-8.34-19.287-18.766s8.34-18.765,19.287-18.765a18.518,18.518,0,0,1,11.155,3.544,19.662,19.662,0,0,1,3.7,3.492L242.547,55.8a12.4,12.4,0,0,0-2.763-2.71,13.891,13.891,0,0,0-8.444-2.763,13.553,13.553,0,0,0,0,27.105,14.023,14.023,0,0,0,8.549-2.867,12.721,12.721,0,0,0,2.919-2.866Z" transform="translate(-102.793 -21.868)" fill="#fff"/>
        <path id="Path_1370" data-name="Path 1370" d="M313.867,46.122h6.255l14.595,36.489h-5.994l-3.649-9.383H308.915l-3.648,9.383h-5.995Zm9.122,21.893L316.995,52.9,311,68.015Z" transform="translate(-145.073 -22.358)" fill="#fff"/>
        <path id="Path_1371" data-name="Path 1371" d="M394.21,46.122h5.213l13.813,17.723L427.05,46.122h5.213V82.611h-5.734V55.766L413.236,72.707,399.945,55.766V82.611H394.21Z" transform="translate(-191.095 -22.358)" fill="#fff"/>
        <path id="Path_1372" data-name="Path 1372" d="M503.372,46.122h14.595c7.09,0,12.25,5.212,12.25,11.729s-5.16,11.728-12.25,11.728h-8.861V82.611h-5.734Zm14.595,18.244a6.516,6.516,0,0,0,0-13.032h-8.861V64.366Z" transform="translate(-244.011 -22.358)" fill="#fff"/>
        <path id="Path_1373" data-name="Path 1373" d="M599.953,45.112c10.946,0,19.286,8.34,19.286,18.765s-8.34,18.766-19.286,18.766-19.287-8.34-19.287-18.766,8.34-18.765,19.287-18.765m0,32.317A13.553,13.553,0,1,0,586.4,63.877a13.46,13.46,0,0,0,13.553,13.553" transform="translate(-281.48 -21.868)" fill="#fff"/>
        <path id="Path_1374" data-name="Path 1374" d="M683.074,73.26a9.306,9.306,0,0,0,2.189,2.086A12.022,12.022,0,0,0,692.2,77.43c4.743,0,7.3-2.554,7.3-5.473,0-8.079-19.286-3.127-19.286-16.68,0-5.473,4.744-10.164,12.51-10.164a16.063,16.063,0,0,1,8.549,2.345,12.035,12.035,0,0,1,2.919,2.345l-3.91,3.909a9.885,9.885,0,0,0-1.929-1.668,10.148,10.148,0,0,0-5.63-1.719c-4.431,0-6.777,2.294-6.777,4.952,0,8.08,19.287,3.128,19.287,16.68,0,5.734-4.952,10.687-13.032,10.687a17.757,17.757,0,0,1-9.852-2.712,13.623,13.623,0,0,1-3.179-2.762Z" transform="translate(-329.228 -21.869)" fill="#fff"/>
        <path id="Path_1375" data-name="Path 1375" d="M85.96,89.887V94.67l-.7.275-5.235-2.72Z" transform="translate(-38.792 -43.573)" fill="#fff"/>
        <path id="Path_1376" data-name="Path 1376" d="M164.962,103.67l-.061,9.183-8.02,3.191.028-9.215Z" transform="translate(-76.049 -50.254)" fill="#fff"/>
        <path id="Path_1377" data-name="Path 1377" d="M164.966,70.417l-.061,9.183-7.279,2.9-.737.294.023-9.211Z" transform="translate(-76.053 -34.135)" fill="#fff"/>
        <path id="Path_1378" data-name="Path 1378" d="M164.966,37.174l-.061,9.183-7.279,2.893-.737.3.023-9.215Z" transform="translate(-76.053 -18.02)" fill="#fff"/>
        <path id="Path_1379" data-name="Path 1379" d="M115.518,52.18l-7.7,3.019L75.55,40.586a.484.484,0,0,0-.126-.038.5.5,0,0,0-.136-.019.4.4,0,0,0-.089.014.254.254,0,0,0-.126.028l-12.108,4.75L56.8,42.116l18.5-7.423,32.214,15.075a.61.61,0,0,0,.471.014l1.2-.48Z" transform="translate(-27.533 -16.818)" fill="#fff"/>
        <path id="Path_1380" data-name="Path 1380" d="M37.1,57.52v9.192L0,47.054V37.863l35.578,18.85Z" transform="translate(0 -18.354)" fill="#fff"/>
        <path id="Path_1381" data-name="Path 1381" d="M82.413,69.973v9.29l-8.039,3.168V73.146Z" transform="translate(-36.053 -33.92)" fill="#fff"/>
        <path id="Path_1382" data-name="Path 1382" d="M82.413,136.469v9.29l-8.039,3.168v-9.285Z" transform="translate(-36.053 -66.154)" fill="#fff"/>
        <path id="Path_1383" data-name="Path 1383" d="M46.288,116.988l-7.76,3.061L1.6,100.485l5.655-2.23,30.777,16.3a.538.538,0,0,0,.116.107.627.627,0,0,0,.546.056L40.53,114Z" transform="translate(-0.777 -47.629)" fill="#fff"/>
        <path id="Path_1384" data-name="Path 1384" d="M37.1,124.019v9.187L0,113.549v-9.193Z" transform="translate(0 -50.587)" fill="#fff"/>
        <path id="Path_1385" data-name="Path 1385" d="M132.726,85.427l-7.708,3.023L92.744,73.828l-.046-.019c-.024,0-.047,0-.084-.014l-.122-.019a.529.529,0,0,0-.116.019l-.084.014v-5.7a.4.4,0,0,0,0-.074l.219-.089L124.719,83.02a.489.489,0,0,0,.471.009l1.2-.476Z" transform="translate(-44.736 -32.936)" fill="#fff"/>
        <path id="Path_1386" data-name="Path 1386" d="M125.161,96.411l-.023,9.183L93.862,90.951V82.227Z" transform="translate(-45.5 -39.86)" fill="#fff"/>
        <path id="Path_1387" data-name="Path 1387" d="M82.413,103.217v9.295l-8.039,3.168v-9.29Z" transform="translate(-36.053 -50.035)" fill="#fff"/>
        <path id="Path_1388" data-name="Path 1388" d="M37.1,90.772v9.192L0,80.3V71.115L36.4,90.4Z" transform="translate(0 -34.473)" fill="#fff"/>
        <path id="Path_1389" data-name="Path 1389" d="M46.288,83.736,38.529,86.8,1.6,67.233,7.258,65l30.777,16.3a.554.554,0,0,0,.662.163l1.834-.723Z" transform="translate(-0.777 -31.51)" fill="#fff"/>
        <path id="Path_1390" data-name="Path 1390" d="M81.829,48.883V57.66l-.7.28-9.63-5Z" transform="translate(-34.662 -23.696)" fill="#fff"/>
        <path id="Path_1391" data-name="Path 1391" d="M125.161,63.162l-.028,9.183L93.862,57.708V48.983Z" transform="translate(-45.5 -23.745)" fill="#fff"/>
        <path id="Path_1392" data-name="Path 1392" d="M64.16,15.64v8.777l-19.3,7.736-9.8-5.091Z" transform="translate(-16.993 -7.581)" fill="#fff"/>
        <path id="Path_1393" data-name="Path 1393" d="M125.161,29.915l-.028,9.183L93.862,24.456V15.73Z" transform="translate(-45.5 -7.625)" fill="#fff"/>
        <path id="Path_1394" data-name="Path 1394" d="M88.762,18.23l-7.7,3.023L48.785,6.631l-.056-.019a.182.182,0,0,0-.06-.009.657.657,0,0,0-.252,0l-.065.009L17.178,18.846a.576.576,0,0,0-.378.518.586.586,0,0,0,.317.569L45.57,34.724l.728.373-7.773,3.061L1.6,18.594,48.677,0Z" transform="translate(-0.777 0)" fill="#fff"/>
      </g>
    </g>
  </g>
</svg>
