<svg xmlns="http://www.w3.org/2000/svg" xmlns:xlink="http://www.w3.org/1999/xlink" width="301.32" height="138.757" viewBox="0 0 301.32 138.757">
  <defs>
    <clipPath id="clip-path">
      <rect id="Rectangle_101" data-name="Rectangle 101" width="301.32" height="138.757" fill="#fff"/>
    </clipPath>
  </defs>
  <g id="Group_340" data-name="Group 340" transform="translate(-614.836 -525)">
    <g id="Group_332" data-name="Group 332" transform="translate(614.836 525)">
      <g id="Group_331" data-name="Group 331" transform="translate(0)">
        <g id="Group_330" data-name="Group 330" clip-path="url(#clip-path)">
          <path id="Path_1327" data-name="Path 1327" d="M160.658,1.8a7.152,7.152,0,0,1,1.8,5.274V8.3a7.2,7.2,0,0,1-1.778,5.274,7.135,7.135,0,0,1-5.294,1.8h-8.5v9.893a1.063,1.063,0,0,1-2.126,0V1.063A.94.94,0,0,1,145.818,0h9.566a7.152,7.152,0,0,1,5.274,1.8m-.327,5.274a5.2,5.2,0,0,0-1.165-3.761,5.133,5.133,0,0,0-3.781-1.186h-8.5v11.12h8.5a5.194,5.194,0,0,0,3.781-1.165A5.193,5.193,0,0,0,160.331,8.3Z" transform="translate(-68.294 0)" fill="#fff"/>
          <path id="Path_1328" data-name="Path 1328" d="M196.123,26.043a1.047,1.047,0,0,1-.286-.777V1.064a1.048,1.048,0,0,1,.286-.776,1.2,1.2,0,0,1,1.553,0,1.05,1.05,0,0,1,.286.776v24.2a1.1,1.1,0,0,1-1.839.777" transform="translate(-92.394 0)" fill="#fff"/>
          <path id="Path_1329" data-name="Path 1329" d="M239.786,25.347q0,.532-.7.858a1.168,1.168,0,0,1-.531.123.851.851,0,0,1-.818-.654L235,19.215H221.635L218.9,25.674a.945.945,0,0,1-.9.654,1.6,1.6,0,0,1-.531-.123.9.9,0,0,1-.654-.9,1.133,1.133,0,0,1,.081-.491l10.139-24A1.213,1.213,0,0,1,228.258,0h.081a1.233,1.233,0,0,1,1.186.818l10.138,24a1.353,1.353,0,0,1,.122.531m-17.292-8.258H234.1L228.3,3.353Z" transform="translate(-102.29 0)" fill="#fff"/>
          <path id="Path_1330" data-name="Path 1330" d="M294.789,20.565a1.036,1.036,0,0,1,.225.817,5.2,5.2,0,0,1-1.778,3.7A6.522,6.522,0,0,1,289,26.329H275.063q-1.145,0-1.145-1.063a1.274,1.274,0,0,1,.143-.572,2.886,2.886,0,0,1,.389-.573L290.967,2.127H279.315a4.566,4.566,0,0,0-2.739.695,2.991,2.991,0,0,0-1.1,2.208,1.3,1.3,0,0,1-.348.777,1.142,1.142,0,0,1-.8.245,1.013,1.013,0,0,1-.777-.306.993.993,0,0,1-.245-.8,5.407,5.407,0,0,1,1.8-3.679A6.368,6.368,0,0,1,279.315,0h13.532a.94.94,0,0,1,1.063,1.063,2.117,2.117,0,0,1-.45,1.267L277.067,24.2H289a4.563,4.563,0,0,0,2.739-.695,3.114,3.114,0,0,0,1.144-2.208,1,1,0,0,1,1.063-1.022,1.1,1.1,0,0,1,.838.286" transform="translate(-128.941 0)" fill="#fff"/>
          <path id="Path_1331" data-name="Path 1331" d="M350.281,20.565a1.033,1.033,0,0,1,.225.817,5.2,5.2,0,0,1-1.778,3.7,6.523,6.523,0,0,1-4.232,1.247H330.555q-1.145,0-1.145-1.063a1.268,1.268,0,0,1,.143-.572,2.86,2.86,0,0,1,.388-.573L346.459,2.127H334.807a4.566,4.566,0,0,0-2.739.695,2.989,2.989,0,0,0-1.1,2.208,1.3,1.3,0,0,1-.348.777,1.14,1.14,0,0,1-.8.245,1.012,1.012,0,0,1-.777-.306.993.993,0,0,1-.246-.8,5.41,5.41,0,0,1,1.8-3.679A6.371,6.371,0,0,1,334.807,0h13.532A.94.94,0,0,1,349.4,1.064a2.118,2.118,0,0,1-.451,1.267L332.559,24.2H344.5a4.562,4.562,0,0,0,2.739-.695A3.115,3.115,0,0,0,348.38,21.3a1,1,0,0,1,1.063-1.022,1.1,1.1,0,0,1,.838.286" transform="translate(-155.122 0)" fill="#fff"/>
          <path id="Path_1332" data-name="Path 1332" d="M405.181,25.347q0,.532-.695.858a1.173,1.173,0,0,1-.531.123.852.852,0,0,1-.818-.654L400.4,19.215H387.03l-2.739,6.459a.946.946,0,0,1-.9.654,1.6,1.6,0,0,1-.531-.123.9.9,0,0,1-.654-.9,1.14,1.14,0,0,1,.081-.491l10.139-24A1.213,1.213,0,0,1,393.653,0h.081a1.233,1.233,0,0,1,1.186.818l10.139,24a1.362,1.362,0,0,1,.122.531m-17.293-8.258H399.5l-5.8-13.736Z" transform="translate(-180.322 0)" fill="#fff"/>
          <path id="Path_1333" data-name="Path 1333" d="M98.462,92.6l-3.167,24.546-5.111-.648,5.9-45.313a22.94,22.94,0,0,1,2.411-.5q1.188-.179,2.232-.27t1.871-.108q.828-.018,1.368-.018,1.116,0,3.293.144a27.8,27.8,0,0,1,4.7.756l5.794,45.313-5.075.648L109.512,92.6ZM103.969,75a16.88,16.88,0,0,0-1.727.09,11.4,11.4,0,0,0-1.584.27L99.038,87.889h9.753l-1.475-12.525a11.4,11.4,0,0,0-1.584-.27,17.251,17.251,0,0,0-1.764-.09" transform="translate(-42.548 -33.162)" fill="#fff"/>
          <path id="Path_1334" data-name="Path 1334" d="M147.253,75.976q-.576-.18-1.224-.342t-1.3-.27l.972-5.076a34.384,34.384,0,0,1,6.28,1.458,31.352,31.352,0,0,1,5.885,2.663,32.112,32.112,0,0,1,9.862,8.981V71.009h5.147V116.43h-5.147l-.072-23.214a42.569,42.569,0,0,0-6.532-9.555A28.671,28.671,0,0,0,152.4,77.2V116.43h-5.147Z" transform="translate(-68.284 -33.162)" fill="#fff"/>
          <path id="Path_1335" data-name="Path 1335" d="M223.16,73.025a26.128,26.128,0,0,1,3.023-1.116q1.654-.5,3.383-.863t3.419-.558a27.321,27.321,0,0,1,3.168-.2,16.521,16.521,0,0,1,5.65.936,11.012,11.012,0,0,1,4.211,2.591,10.366,10.366,0,0,1,1.944,2.718,12.738,12.738,0,0,1,.99,2.861,15.872,15.872,0,0,1,.342,2.9q.036,1.458.036,2.825V92.6h-19v23.826h-5.147V77.056Zm7.163,14.865h14v-2.7q0-.792-.036-1.746a14.294,14.294,0,0,0-.216-1.962,9.617,9.617,0,0,0-.612-2.033,7.569,7.569,0,0,0-1.187-1.926,6.3,6.3,0,0,0-1.62-1.4,7.871,7.871,0,0,0-1.71-.755,7.53,7.53,0,0,0-1.637-.306Q236.513,75,235.866,75a20.583,20.583,0,0,0-3.042.235,9.394,9.394,0,0,0-2.5.666Z" transform="translate(-105.285 -33.162)" fill="#fff"/>
          <path id="Path_1336" data-name="Path 1336" d="M323.789,76.4H309.5V88.532h9.574v4.715H309.5v16.016a21.792,21.792,0,0,0,3.311,1.854,20.278,20.278,0,0,0,3.4,1.169,25.007,25.007,0,0,0,3.617.612q1.871.18,3.959.18l-.36,4.715a34.248,34.248,0,0,1-6.713-.63,33.875,33.875,0,0,1-5.866-1.709,30.262,30.262,0,0,1-5.021-2.537,32.541,32.541,0,0,1-4.139-3.077l2.663-3.383V76.4l-1.475-4.751h20.911Z" transform="translate(-142.335 -33.805)" fill="#fff"/>
          <path id="Path_1337" data-name="Path 1337" d="M362.935,76.4h-9.61l-1.44-4.751h26.526V76.4h-10.33v40.67h-5.146Z" transform="translate(-166.017 -33.805)" fill="#fff"/>
          <path id="Path_1338" data-name="Path 1338" d="M412.142,73.025a35.761,35.761,0,0,1,5.958-1.979,25.967,25.967,0,0,1,6.064-.756,18.858,18.858,0,0,1,5.794.846,12.379,12.379,0,0,1,4.463,2.466,10.73,10.73,0,0,1,2.105,2.483,11.322,11.322,0,0,1,1.171,2.664,13.708,13.708,0,0,1,.5,2.771q.109,1.4.109,2.771V92.6h-7.127l9.645,22.494-4.786,2.052L425.423,92.6h-6.118v23.826h-5.146V77.056Zm7.163,14.865h14V85.406q0-.827-.072-1.818a12.627,12.627,0,0,0-.306-1.98,11.553,11.553,0,0,0-.648-1.943,6.217,6.217,0,0,0-1.1-1.71,9.011,9.011,0,0,0-3.509-2.357,12.177,12.177,0,0,0-8.368.306Z" transform="translate(-194.446 -33.162)" fill="#fff"/>
          <path id="Path_1339" data-name="Path 1339" d="M488.28,70.289a13.963,13.963,0,0,1,6.461,1.35,11.427,11.427,0,0,1,4.211,3.653,15.04,15.04,0,0,1,2.286,5.417,30.763,30.763,0,0,1,.684,6.6v20.48l2.627,3.419a30.429,30.429,0,0,1-2.807,2.105,21.31,21.31,0,0,1-3.581,1.907,25.143,25.143,0,0,1-9.88,1.926,26,26,0,0,1-4.859-.414,24.834,24.834,0,0,1-3.833-1.026,17.715,17.715,0,0,1-2.9-1.331,23.736,23.736,0,0,1-2.052-1.332V87.313a30.7,30.7,0,0,1,.684-6.6,15.2,15.2,0,0,1,2.268-5.417,11.266,11.266,0,0,1,4.193-3.653,14.044,14.044,0,0,1,6.5-1.35m-.408,42.146a18.169,18.169,0,0,0,4.751-.558,11.911,11.911,0,0,0,3.708-1.709V87.313a30.573,30.573,0,0,0-.325-4.445,11.98,11.98,0,0,0-1.259-3.959,7.626,7.626,0,0,0-2.591-2.825,9.106,9.106,0,0,0-8.6,0,7.613,7.613,0,0,0-2.591,2.825,11.97,11.97,0,0,0-1.26,3.959,30.674,30.674,0,0,0-.324,4.445v22.855a12.866,12.866,0,0,0,3.761,1.709,17.955,17.955,0,0,0,4.733.558" transform="translate(-223.931 -33.162)" fill="#fff"/>
          <path id="Path_1340" data-name="Path 1340" d="M52.26,70.289a22.748,22.748,0,0,1,5,.5,18.666,18.666,0,0,1,4.355,1.6l-2.231,4.3a21.232,21.232,0,0,0-3.779-1.334,14.24,14.24,0,0,0-3.275-.409,9.4,9.4,0,0,0-3.023.462,6.986,6.986,0,0,0-2.357,1.317,5.827,5.827,0,0,0-1.53,2.063,6.571,6.571,0,0,0-.54,2.7,7.245,7.245,0,0,0,.612,3.024,11.178,11.178,0,0,0,1.584,2.526,15.484,15.484,0,0,0,2.232,2.188q1.259,1.013,2.555,1.974,2.592,1.921,4.517,3.523A26.021,26.021,0,0,1,59.6,97.864a11.72,11.72,0,0,1,1.943,3.113,8.894,8.894,0,0,1,.648,3.4V107.1l2.123,4.02a23.82,23.82,0,0,1-6.568,3.772,21.21,21.21,0,0,1-7.5,1.316q-.829,0-2.124-.071a26.409,26.409,0,0,1-2.807-.32,24.234,24.234,0,0,1-3.095-.729,13.669,13.669,0,0,1-3.023-1.334l2.123-4.59a17.135,17.135,0,0,0,4.445,1.815,17.945,17.945,0,0,0,4.337.569,12.648,12.648,0,0,0,3.8-.516,14.128,14.128,0,0,0,3.149-1.441V104.98a5.435,5.435,0,0,0-.846-2.9A12.752,12.752,0,0,0,54.1,99.518a28.1,28.1,0,0,0-2.717-2.259Q49.92,96.191,48.7,95.267q-1.727-1.317-3.365-2.7a19.03,19.03,0,0,1-2.88-3.025,14.84,14.84,0,0,1-2-3.557,11.771,11.771,0,0,1-.756-4.341,12.318,12.318,0,0,1,.9-4.856,9.636,9.636,0,0,1,2.555-3.558,11.192,11.192,0,0,1,3.977-2.188,16.67,16.67,0,0,1,5.128-.747" transform="translate(-18.492 -33.162)" fill="#fff"/>
          <path id="Path_1341" data-name="Path 1341" d="M488.28,70.289a13.963,13.963,0,0,1,6.461,1.35,11.427,11.427,0,0,1,4.211,3.653,15.04,15.04,0,0,1,2.286,5.417,30.763,30.763,0,0,1,.684,6.6v20.48l2.627,3.419a30.429,30.429,0,0,1-2.807,2.105,21.31,21.31,0,0,1-3.581,1.907,25.143,25.143,0,0,1-9.88,1.926,26,26,0,0,1-4.859-.414,24.834,24.834,0,0,1-3.833-1.026,17.715,17.715,0,0,1-2.9-1.331,23.736,23.736,0,0,1-2.052-1.332V87.313a30.7,30.7,0,0,1,.684-6.6,15.2,15.2,0,0,1,2.268-5.417,11.266,11.266,0,0,1,4.193-3.653,14.044,14.044,0,0,1,6.5-1.35m-.408,42.146a18.169,18.169,0,0,0,4.751-.558,11.911,11.911,0,0,0,3.708-1.709V87.313a30.573,30.573,0,0,0-.325-4.445,11.98,11.98,0,0,0-1.259-3.959,7.626,7.626,0,0,0-2.591-2.825,9.106,9.106,0,0,0-8.6,0,7.613,7.613,0,0,0-2.591,2.825,11.97,11.97,0,0,0-1.26,3.959,30.674,30.674,0,0,0-.324,4.445v22.855a12.866,12.866,0,0,0,3.761,1.709,17.955,17.955,0,0,0,4.733.558" transform="translate(-223.931 -33.162)" fill="#fff"/>
          <path id="Path_1342" data-name="Path 1342" d="M281.246,109.111l1.614-1.233,1.614,1.233a.639.639,0,0,1,.173.229l.858-37.688h-5.183l.753,37.683a.63.63,0,0,1,.171-.224" transform="translate(-132.254 -33.805)" fill="#fff"/>
          <path id="Path_1343" data-name="Path 1343" d="M284.93,182.305c-.074-.094-.33-.343-.493-.5a.448.448,0,0,1-.143-.311l-.553-37.5a.573.573,0,0,0-.215-.424l-1.544-1.18-1.543,1.18a.573.573,0,0,0-.215.424l-.553,37.5a.446.446,0,0,1-.143.311c-.162.155-.418.4-.492.5a16.536,16.536,0,0,0-.564,1.653.225.225,0,0,0,.242.27h6.537a.224.224,0,0,0,.242-.27,16.435,16.435,0,0,0-.564-1.653" transform="translate(-131.377 -67.181)" fill="#fff"/>
          <path id="Path_1344" data-name="Path 1344" d="M147.111,184.557l.06-2.4H145.1a.538.538,0,0,1-.556-.517v-8.7a.537.537,0,0,1,.556-.517h2.123a.571.571,0,0,1,.184.032l.355-14.335c-1.672,1.173-3.389,3.3-4.089,7.138a.174.174,0,0,1-.169.138l-2.752.073a.219.219,0,0,1-.226-.174c-.08-.463-.339-1.658-.886-1.658s-.738,1.218-.8,1.74a.282.282,0,0,1-.283.238s-4.633.177-4.727.17a.19.19,0,0,1-.159-.106c-.232-.487-1.385-2.5-2.432-2.43-1.18.082-1.382,1.356-1.785,1.487-.348.113-.686-.359-1.307-.111-.412.164-.551,1.319-.584,1.677-.006.065-.067.867-.066.933l.029,2.538c0,.115.029,1.275.029,1.379v6.164c-.445-.135-2.043-.584-3.276-.951s-5.128-1.929-5.529-1.958c-.295-.022-1.647-.018-1.647-.018a.122.122,0,0,1-.121-.128c.021-.41-.025-1.428-.411-1.428s-.4,1.028-.42,1.392a.107.107,0,0,1-.1.1h-.015c-.061,0-1.052.067-1.112.065l-.3-.011a.123.123,0,0,1-.119-.12c-.011-.377-.055-1.476-.444-1.476s-.427,1.08-.424,1.486a.118.118,0,0,1-.124.117l-1.5.007a.11.11,0,0,1-.1-.112c.009-.473.054-1.64-.457-1.495-.329.092-.357.781-.391,1.333-.006.094-.015.287-.133.287h-1.546a.161.161,0,0,1-.161-.155c-.016-.4-.1-1.445-.536-1.419s-.456,1.052-.45,1.474a.173.173,0,0,1-.174.177h-1.38a.123.123,0,0,1-.125-.124c0-.382-.059-1.523-.589-1.527-.444,0-.545,1.111-.535,1.5a.132.132,0,0,1-.133.134H104a.132.132,0,0,1-.133-.125c-.016-.382-.1-1.5-.536-1.507s-.517,1.089-.535,1.477a.141.141,0,0,1-.142.135h-1.5a.135.135,0,0,1-.136-.133c-.005-.386-.065-1.49-.558-1.48-.473.01-.554,1.014-.567,1.433a.182.182,0,0,1-.186.177l-1.284-.023a.143.143,0,0,1-.135-.148c.013-.416.013-1.618-.45-1.618s-.594,1.174-.626,1.59a.154.154,0,0,1-.157.142l-1.418-.032a.14.14,0,0,1-.139-.141c0-.4-.029-1.559-.474-1.559s-.482,1.092-.483,1.5a.151.151,0,0,1-.155.15l-1.441-.03a.145.145,0,0,1-.142-.147c.007-.415-.011-1.592-.438-1.592s-.512,1.213-.526,1.61a.127.127,0,0,1-.129.123l-1.55-.024A.16.16,0,0,1,90,174.08c-.011-.42-.072-1.551-.433-1.551s-.427,1.1-.44,1.53a.162.162,0,0,1-.17.157l-1.656-.08a.165.165,0,0,1-.157-.169c.012-.434.008-1.6-.353-1.612-.434-.02-.482,1.194-.512,1.622a.147.147,0,0,1-.158.136l-1.292-.09a.158.158,0,0,1-.148-.165c.023-.456.051-1.76-.395-1.791s-.556,1.232-.58,1.664a.143.143,0,0,1-.153.134l-1.328-.092a.142.142,0,0,1-.132-.144c.011-.423.011-1.735-.409-1.735-.482,0-.585,1.3-.625,1.726a.128.128,0,0,1-.138.115l-1.275-.105a.173.173,0,0,1-.157-.183c.03-.453-.022-1.7-.369-1.707-.445-.012-.562,1.241-.589,1.693a.151.151,0,0,1-.166.142l-1.268-.125a.151.151,0,0,1-.135-.148c-.006-.454-.053-1.9-.463-1.948-.482-.058-.533,1.423-.567,1.921a.158.158,0,0,1-.171.148l-1.158-.1a.161.161,0,0,1-.148-.166c.02-.5.044-2.066-.442-2.131s-.616,1.616-.641,2.1a.125.125,0,0,1-.137.116l-1.082-.093a.136.136,0,0,1-.122-.135c0-.459.02-2.121-.549-2.159-.411-.028-.517,1.482-.542,1.987a.141.141,0,0,1-.161.13l-1.183-.091a.125.125,0,0,1-.106-.132c.025-.437.031-2.018-.472-2.1-.521-.082-.6,1.295-.69,1.869-.008.059-.061.146-.129.141-.215-.016-.947-.052-1.382-.079-.173-.011.015-2.343-.7-2.322-.585.017-.593,2.094-.766,2.082-.417-.03-.957-.087-1.442-.121-.213-.016-.074-2.192-.7-2.274-.787-.1-.782,2.156-.931,2.145-.4-.031-1.288-.126-1.541-.146-.221-.016.177-2.22-.611-2.255-.681-.032-.582,2.159-.782,2.144a10.775,10.775,0,0,1-1.155-.151.173.173,0,0,1-.154-.182c.026-.5.067-1.956-.4-2.053-.479-.1-.674,1.544-.72,2.015a.12.12,0,0,1-.136.107l-1.075-.155a.14.14,0,0,1-.118-.151c.044-.47.157-2.054-.3-2.2s-.7,1.562-.757,2.05a.121.121,0,0,1-.142.1l-.79-.144a.153.153,0,0,1-.126-.167c.049-.473.178-2.015-.305-2.152-.578-.164-.687,1.528-.739,2.038a.126.126,0,0,1-.153.11l-.975-.215a.177.177,0,0,1-.138-.185c.044-.509.142-2.134-.329-2.345s-.707,1.624-.758,2.129a.116.116,0,0,1-.139.1l-.887-.174a.182.182,0,0,1-.145-.2c.046-.507.146-2.035-.287-2.324s-.687,1.524-.753,2.091a.145.145,0,0,1-.18.124l-.622-.155a.188.188,0,0,1-.141-.207c.073-.544.266-2.248-.155-2.392-.53-.183-.772,1.672-.863,2.207a.123.123,0,0,1-.163.094L45,169.178a.161.161,0,0,1-.105-.163c.038-.484.142-2.266-.358-2.482s-.662,1.544-.706,2.113a.137.137,0,0,1-.18.119l-.3-.1a.2.2,0,0,1-.133-.205c.061-.57.264-2.619-.242-2.682-.64-.077-.756,1.76-.826,2.314a.111.111,0,0,1-.153.089l-.251-.1a.282.282,0,0,1-.175-.288c.066-.669.208-2.736-.5-2.935-.569-.158-.82,1.879-.873,2.385a.073.073,0,0,1-.109.054l-.117-.068-.1-1.388a.215.215,0,0,0,.1-.289.42.42,0,0,1,.077-.481c.116-.116.405-.387.405-.463a1.815,1.815,0,0,1,.132-.36.083.083,0,0,0-.074-.116l-.363-.005a.109.109,0,0,1-.1-.082c-.021-.088-.04-.223.023-.286a.557.557,0,0,0,.135-.423c-.02-.135.251-.482.308-.56s1.561-3.219,1.561-3.219l.033-.323a.178.178,0,0,1,.049-.107,1.934,1.934,0,0,0,.13-.148c.058-.078.251-.194.289-.309s.193-.154.231-.231a.3.3,0,0,0,.024-.127.069.069,0,0,0-.067-.068l-2.282-.106a.214.214,0,0,1-.174-.109.743.743,0,0,0-.259-.279.11.11,0,0,1-.058-.1l-.027-1.094.357-.7.041-.22-3.329-.2a.187.187,0,0,1-.164-.08l-3.613-.927c-.537.036-1.077.06-1.625.06-.569,0-1.282-.024-2.179-.073a27.624,27.624,0,0,1-2.917-.332,25.374,25.374,0,0,1-3.226-.76,14.793,14.793,0,0,1-3.247-1.433l-.792-.47.94-2.033c-2.6,1.118-10.869,4.67-10.964,4.716a3.8,3.8,0,0,1-.608-.019c-.12-.009-.232-.02-.311-.027a.294.294,0,0,1-.175-.083.3.3,0,0,1-.086-.253.955.955,0,0,1,.158-.465,3.511,3.511,0,0,0,.269-1,2.236,2.236,0,0,0,.174-.983,5.371,5.371,0,0,0-.308-1.022c-.115-.193-.424-.231-.444-.424s-.022-.612-.424-.559c-.367.049,0,.607-.434.771-.283.107-.26.5-.656.472-.192-.014-.125.28.173.674.282.373.049.839.01,1.07a2.063,2.063,0,0,0-.038.676,1.75,1.75,0,0,1-.193.732l-.037.058a.367.367,0,0,1-.281.167l-.215.016a.11.11,0,0,0-.1.129l.036.188.231.213v.308s-2.932.083-3.182.123-.09.325-.057.533c.026.172.3.28.3.28L2.952,157.4l-.251.231-2.611.038a.089.089,0,0,0-.089.1.6.6,0,0,0,.118.289c.154.212.4.385.4.443a.838.838,0,0,0,.078.386c.076.134,1.773,1.947,1.773,1.947l-.058,1.118-.377-.015a.093.093,0,0,0-.094.118.814.814,0,0,0,.086.224c.058.078.154.616.231.714s0,.463,0,.463l-.437.014a.1.1,0,0,0-.091.137,1.062,1.062,0,0,0,.124.254,6.941,6.941,0,0,1,.5.6c.02.058-.078.271-.078.405s.1.251.078.329-1.195,17.773-1.195,17.773a3.891,3.891,0,0,0-.6.5,1.616,1.616,0,0,0-.087.395l-.132,2.135a.2.2,0,0,0,.2.216l6.674.292a.185.185,0,0,0,.193-.184v-2.063a.854.854,0,0,0-.1-.4,4.062,4.062,0,0,0-.366-.414l.983-19.6a1.381,1.381,0,0,1,.134-.5,1.049,1.049,0,0,0,.308-.424.578.578,0,0,1,.154-.289l4.357.135v.308l.231.27s.058.308.193.366.1.271.1.271-.154.134-.154.211.164.135.159.232-1.065,19.469-1.065,19.469l-.308.231a.615.615,0,0,0-.424.483c-.03.288-.109,1.3-.14,1.723a.176.176,0,0,0,.171.19l3.715.087a.219.219,0,0,0,.224-.22v-1.665a.865.865,0,0,0-.308-.674l.636-19.547a.244.244,0,0,0,.167-.227c.015-.188-.158-.246-.143-.3a.545.545,0,0,1,.259-.2c.088-.029.16-.4.131-.534a1.536,1.536,0,0,1,.007-.391l9.088.174c.042,0,.2.317.2.317s-.043.52.13.594a.372.372,0,0,1,.231.231c.015.043-.173.231-.158.347s.16.144.16.274-.984,19.865-.984,19.865-.37.342-.37.516c0,.137-.062.98-.092,1.426a.19.19,0,0,0,.186.2l3.761.107a.183.183,0,0,0,.188-.182v-1.464a.668.668,0,0,0-.289-.4c-.246-.158-.218-.2-.246-.332s.231-19.794.231-19.794.116-.116.116-.2-.116-.174-.1-.231.029-.245.129-.3.275-.132.333-.247a4.657,4.657,0,0,0,.144-.65l4.554.129s.246.2.261.319.028.478.116.492a.205.205,0,0,1,.116.26c-.044.1-.173.218-.146.275s.127.116.158.2-.346,19.923-.346,19.923-.1.346-.16.376-.317.158-.289.318c.023.127-.027,1.066-.049,1.439a.147.147,0,0,0,.143.155l7.308.182a.1.1,0,0,0,.1-.1v-.188a.088.088,0,0,1,.085-.089c1.294-.047,77.266-.89,78.485-.893a.87.87,0,0,0,.158-.016l8.483-1.669a.345.345,0,0,0,.038-.015Zm-7.593-11.626a.537.537,0,0,1,.555-.517H142.2a.537.537,0,0,1,.556.517v8.7a.538.538,0,0,1-.556.517h-2.123a.537.537,0,0,1-.555-.517Zm-5.031,0a.537.537,0,0,1,.555-.517h2.123a.537.537,0,0,1,.556.517v8.7a.538.538,0,0,1-.556.517h-2.123a.537.537,0,0,1-.555-.517Zm-5.031,0a.537.537,0,0,1,.555-.517h2.123a.537.537,0,0,1,.556.517v8.7a.537.537,0,0,1-.556.517h-2.123a.537.537,0,0,1-.555-.517ZM3.894,183.212c-.031.349-.675.476-.675.476l1.232-18.675a.2.2,0,0,0,.13-.2.32.32,0,0,0-.128-.245c0,.013,0,0,0,0h0c0-.015,0-.066,0-.219,0-.284.675-.443.675-.443s-1.2,18.953-1.237,19.3m7.939-26.551,9.315-3.632-.322.61-3.843,2.131,10.9.854,1.581.563ZM37.5,164.382s0,.015,0,0a.344.344,0,0,0-.154.253.212.212,0,0,0,.124.218l-.05,20.018s-.661-.165-.669-.539.09-20.688.09-20.688.694.2.673.506c-.012.163-.014.217-.014.233l0,0m4.523,20.49h-.533V172.1c.157.046.334.1.533.15Zm1.767,0h-.532v-12.3l.532.126Zm1.883,0h-.532V172.993l.532.11Zm1.967,0H47.1V173.381l.532.1Zm2.2,0H49.3V173.766l.532.087Zm2.19,0h-.532V174.108l.532.078Zm2.19,0h-.532V174.417l.532.07Zm2.306,0h-.642V174.7l.642.077Zm2.516,0h-.652v-9.888l.652.07Zm2.74,0H61.1v-9.608l.671.064Zm3.128,0h-.7v-9.327l.7.059Zm3.006,0h-.737v-9.09l.737.054Zm2.637,0h-.7v-8.9l.7.045Zm2.4,0h-.641v-8.747l.641.038Zm2.681,0H74.9v-8.6l.732.037Zm2.452,0h-.718v-8.481l.718.033Zm2.564,0h-.73V176.5l.73.029Zm2.572,0h-.756V176.6l.756.026Zm2.679,0h-.765v-8.189l.765.022Zm2.683,0h-.752v-8.116l.752.017Zm2.734,0h-.841v-8.059l.841.015Zm2.679,0h-.818v-8.014l.818.012Zm2.72,0h-.879v-7.981l.879.008Zm2.788,0h-.846v-7.959l.846,0Zm2.864,0H101.4v-7.949h.965Zm2.793,0h-.941v-7.951l.941,0Zm2.677,0h-.919V176.91l.919-.006Zm2.734,0h-.93v-7.984l.93-.01Zm2.708,0h-.89v-8.016l.89-.012Zm2.68,0h-1.024v-8.054l1.024-.017Z" transform="translate(0 -70.418)" fill="#fff"/>
          <path id="Path_1345" data-name="Path 1345" d="M438.326,157.666l-2.611-.038-.251-.231-.085-1.725s.27-.108.3-.28c.033-.208.194-.495-.057-.534s-3.181-.122-3.181-.122v-.308l.231-.213.036-.188a.11.11,0,0,0-.1-.129l-.215-.016a.366.366,0,0,1-.281-.168l-.038-.058a1.76,1.76,0,0,1-.193-.733,2.073,2.073,0,0,0-.038-.675c-.039-.232-.272-.7.009-1.07.3-.395.365-.688.174-.675-.4.029-.373-.365-.656-.472-.434-.164-.067-.723-.434-.771-.4-.053-.405.367-.424.558s-.329.231-.444.425a5.4,5.4,0,0,0-.307,1.022,2.229,2.229,0,0,0,.174.983,3.512,3.512,0,0,0,.269,1,.951.951,0,0,1,.159.465.3.3,0,0,1-.085.254.3.3,0,0,1-.175.083c-.078.008-.191.018-.311.027a3.8,3.8,0,0,1-.608.019c-.1-.046-8.571-3.688-11.057-4.756a31.717,31.717,0,0,1-2.781,2.077,22.49,22.49,0,0,1-3.751,2,26.077,26.077,0,0,1-10.174,2,.157.157,0,0,1-.024.006l-3.329.2.041.221.357.7-.027,1.094a.11.11,0,0,1-.058.1.747.747,0,0,0-.259.279.212.212,0,0,1-.174.109l-2.282.107a.069.069,0,0,0-.067.068.29.29,0,0,0,.024.127c.038.077.193.115.231.231s.231.232.289.309a1.727,1.727,0,0,0,.131.148.178.178,0,0,1,.049.108l.032.323s1.5,3.142,1.561,3.219.329.424.309.559a.562.562,0,0,0,.135.424c.062.062.044.2.023.286a.108.108,0,0,1-.1.082l-.363.006a.083.083,0,0,0-.073.116,1.846,1.846,0,0,1,.132.359c0,.077.289.348.4.463a.421.421,0,0,1,.078.482.214.214,0,0,0,.1.288l-.1,1.388-.117.068a.072.072,0,0,1-.109-.054c-.053-.505-.3-2.544-.873-2.385-.712.2-.57,2.267-.5,2.935a.283.283,0,0,1-.174.288l-.252.1a.111.111,0,0,1-.153-.089c-.069-.553-.186-2.391-.826-2.314-.506.062-.3,2.112-.242,2.681a.2.2,0,0,1-.133.206l-.3.1a.137.137,0,0,1-.181-.119c-.044-.569-.22-2.324-.705-2.113s-.4,2-.358,2.482a.161.161,0,0,1-.105.163l-.747.273a.122.122,0,0,1-.163-.094c-.092-.535-.333-2.391-.863-2.207-.421.144-.228,1.848-.155,2.392a.188.188,0,0,1-.141.207l-.621.155a.146.146,0,0,1-.181-.124c-.066-.567-.314-2.385-.753-2.091s-.333,1.817-.287,2.324a.182.182,0,0,1-.145.2l-.887.174a.116.116,0,0,1-.139-.1c-.052-.505-.275-2.346-.759-2.13s-.372,1.837-.329,2.346a.177.177,0,0,1-.138.185l-.975.216a.127.127,0,0,1-.153-.11c-.052-.51-.161-2.2-.739-2.038-.483.138-.354,1.68-.305,2.152a.154.154,0,0,1-.126.168l-.791.143a.121.121,0,0,1-.142-.1c-.056-.488-.293-2.2-.756-2.05s-.345,1.731-.3,2.2a.139.139,0,0,1-.118.15l-1.074.155a.119.119,0,0,1-.136-.107c-.047-.471-.242-2.114-.721-2.015-.464.1-.423,1.557-.4,2.053a.173.173,0,0,1-.154.182,10.712,10.712,0,0,1-1.155.15c-.2.015-.1-2.177-.782-2.144-.788.035-.389,2.239-.61,2.255-.252.02-1.137.116-1.541.146-.149.011-.145-2.249-.931-2.145-.621.082-.482,2.258-.7,2.274-.486.034-1.025.091-1.442.121-.172.012-.18-2.064-.765-2.082-.713-.021-.525,2.311-.7,2.321-.435.027-1.167.063-1.382.08-.068,0-.121-.082-.13-.141-.089-.575-.168-1.951-.689-1.869-.5.08-.5,1.661-.472,2.1a.126.126,0,0,1-.107.132l-1.183.091a.14.14,0,0,1-.161-.131c-.025-.505-.132-2.015-.542-1.987-.569.038-.553,1.7-.549,2.159a.135.135,0,0,1-.121.135l-1.083.093a.124.124,0,0,1-.136-.115c-.024-.486-.146-2.168-.641-2.1s-.461,1.628-.442,2.131a.161.161,0,0,1-.148.167l-1.158.1a.158.158,0,0,1-.171-.148c-.033-.5-.086-1.979-.566-1.921-.41.049-.457,1.494-.463,1.948a.152.152,0,0,1-.136.148l-1.268.125a.151.151,0,0,1-.166-.142c-.028-.452-.145-1.705-.59-1.693-.347.011-.4,1.254-.369,1.707a.172.172,0,0,1-.157.183l-1.275.106a.129.129,0,0,1-.138-.115c-.04-.424-.144-1.726-.626-1.726-.42,0-.42,1.313-.409,1.735a.142.142,0,0,1-.131.145l-1.328.092a.143.143,0,0,1-.153-.134c-.024-.433-.133-1.7-.58-1.664s-.417,1.336-.394,1.792a.159.159,0,0,1-.149.165l-1.291.09a.146.146,0,0,1-.158-.136c-.03-.427-.079-1.642-.513-1.622-.36.017-.364,1.179-.353,1.613a.164.164,0,0,1-.157.169l-1.656.08a.162.162,0,0,1-.17-.157c-.013-.427-.082-1.53-.439-1.53s-.422,1.131-.433,1.551a.16.16,0,0,1-.158.157l-1.55.024a.127.127,0,0,1-.128-.123c-.014-.4-.091-1.61-.526-1.61s-.445,1.177-.438,1.593a.145.145,0,0,1-.142.147l-1.442.03a.151.151,0,0,1-.155-.15c0-.412-.045-1.5-.484-1.5s-.478,1.155-.474,1.559a.14.14,0,0,1-.139.142l-1.418.031a.154.154,0,0,1-.157-.141c-.033-.416-.167-1.59-.626-1.59s-.463,1.2-.45,1.618a.144.144,0,0,1-.135.148l-1.284.023a.182.182,0,0,1-.186-.177c-.013-.419-.093-1.423-.567-1.433-.492-.011-.552,1.093-.558,1.48a.135.135,0,0,1-.135.133h-1.5a.142.142,0,0,1-.142-.135c-.018-.389-.107-1.483-.535-1.477s-.519,1.125-.536,1.506a.132.132,0,0,1-.133.125h-1.3a.131.131,0,0,1-.133-.134c.008-.386-.092-1.5-.536-1.5-.53,0-.585,1.145-.589,1.527a.124.124,0,0,1-.125.124h-1.38a.175.175,0,0,1-.175-.177c.007-.422-.021-1.449-.45-1.474s-.519,1.017-.535,1.419a.161.161,0,0,1-.161.155h-1.545c-.117,0-.127-.193-.133-.287-.035-.551-.062-1.24-.391-1.333-.511-.145-.466,1.022-.457,1.494a.11.11,0,0,1-.1.112l-1.5-.007a.117.117,0,0,1-.124-.116c0-.407-.035-1.487-.423-1.487s-.434,1.1-.444,1.476a.124.124,0,0,1-.119.12l-.295.011c-.06,0-1.051-.063-1.113-.065h-.015a.106.106,0,0,1-.1-.1c-.016-.365-.023-1.393-.419-1.393s-.433,1.019-.412,1.428a.121.121,0,0,1-.121.128s-1.352,0-1.647.019c-.4.029-4.295,1.591-5.529,1.958s-2.833.816-3.276.95a.4.4,0,0,0-.07.042v-6.205c0-.1.028-1.263.029-1.378l.029-2.539c0-.066-.06-.867-.066-.932-.033-.357-.172-1.513-.584-1.677-.622-.248-.959.263-1.307.15-.4-.132-.605-1.444-1.785-1.527-1.047-.073-2.2,1.943-2.431,2.431a.191.191,0,0,1-.159.105c-.094.007-4.726-.17-4.726-.17a.281.281,0,0,1-.282-.238c-.064-.523-.269-1.74-.8-1.74s-.806,1.2-.886,1.657a.218.218,0,0,1-.225.175l-2.751-.073a.174.174,0,0,1-.17-.139c-.7-3.842-2.415-5.965-4.087-7.138l.355,14.334a.584.584,0,0,1,.184-.031h2.122a.537.537,0,0,1,.555.517v8.7a.537.537,0,0,1-.555.517h-2.066l.059,2.4,19.264-.38a.31.31,0,0,0,.042.016l8.483,1.67a.916.916,0,0,0,.158.016c1.219,0,77.192.845,78.485.893a.088.088,0,0,1,.086.089v.189a.1.1,0,0,0,.1.1l7.308-.182a.146.146,0,0,0,.143-.155c-.022-.372-.071-1.312-.049-1.438.028-.16-.231-.289-.289-.318s-.16-.376-.16-.376-.376-19.836-.346-19.923.128-.145.158-.2-.1-.173-.145-.276a.205.205,0,0,1,.116-.26c.088-.014.1-.376.116-.492s.261-.318.261-.318l4.554-.129a4.622,4.622,0,0,0,.144.65c.058.116.232.189.333.247s.116.245.129.3-.1.145-.1.232.116.2.116.2.262,19.663.231,19.793,0,.174-.245.332a.67.67,0,0,0-.289.4V186.7a.182.182,0,0,0,.187.182l3.761-.106a.191.191,0,0,0,.186-.2c-.03-.446-.092-1.288-.092-1.425,0-.173-.37-.516-.37-.516s-.983-19.734-.984-19.865.146-.158.16-.274-.173-.3-.159-.347a.368.368,0,0,1,.231-.231c.174-.073.131-.594.131-.594s.158-.318.2-.318l9.088-.174a1.531,1.531,0,0,1,.007.391c-.029.129.043.506.13.535s.246.144.259.2-.158.116-.144.3a.245.245,0,0,0,.168.227l.637,19.547a.862.862,0,0,0-.308.674v1.664a.219.219,0,0,0,.224.22l3.715-.087a.176.176,0,0,0,.171-.19c-.031-.42-.11-1.435-.14-1.724a.616.616,0,0,0-.425-.482l-.307-.231-1.065-19.47c-.006-.1.159-.154.159-.231s-.154-.212-.154-.212-.039-.213.1-.27.193-.366.193-.366l.231-.27v-.308l4.357-.135a.572.572,0,0,1,.154.289,1.046,1.046,0,0,0,.309.424,1.382,1.382,0,0,1,.134.5l.983,19.605a3.955,3.955,0,0,0-.365.414.848.848,0,0,0-.1.4v2.062a.186.186,0,0,0,.193.185l6.674-.292a.2.2,0,0,0,.195-.216l-.132-2.135a1.616,1.616,0,0,0-.087-.395,3.9,3.9,0,0,0-.6-.5s-1.175-17.7-1.194-17.773.077-.193.077-.328-.1-.347-.077-.406a6.939,6.939,0,0,1,.5-.6,1.087,1.087,0,0,0,.124-.254.1.1,0,0,0-.091-.137l-.437-.014s-.076-.367,0-.463.174-.636.232-.714a.814.814,0,0,0,.086-.224.093.093,0,0,0-.094-.118l-.377.015-.058-1.118s1.7-1.813,1.773-1.946a.835.835,0,0,0,.078-.387c0-.058.25-.231.4-.443a.6.6,0,0,0,.118-.289.089.089,0,0,0-.089-.1M298.831,181.637a.537.537,0,0,1-.555.517h-2.122a.537.537,0,0,1-.556-.517v-8.7a.537.537,0,0,1,.556-.517h2.122a.536.536,0,0,1,.555.517Zm5.03,0a.537.537,0,0,1-.556.517h-2.122a.537.537,0,0,1-.555-.517v-8.7a.536.536,0,0,1,.555-.517h2.122a.537.537,0,0,1,.556.517Zm5.029,0a.537.537,0,0,1-.555.517h-2.123a.537.537,0,0,1-.555-.517v-8.7a.537.537,0,0,1,.555-.517h2.123a.536.536,0,0,1,.555.517Zm14.593,3.236h-1.024V176.8l1.024.017Zm2.545,0h-.89v-8.029l.89.013Zm2.748,0h-.93v-7.994l.93.009Zm2.722,0h-.918V176.9l.918.006Zm2.7,0h-.941v-7.954l.941,0Zm2.816,0h-.964v-7.948h.964Zm2.746,0h-.846v-7.955l.846,0Zm2.822,0H341.7V176.9l.879-.009Zm2.66,0h-.818v-8l.818-.011Zm2.7,0H347.1v-8.044l.841-.015Zm2.645,0h-.752v-8.1l.752-.018Zm2.7,0h-.765v-8.167l.765-.022Zm2.671,0H355.2v-8.249l.757-.025Zm2.545,0h-.73v-8.341l.73-.029Zm2.553,0h-.718v-8.449l.718-.032Zm2.465,0h-.732v-8.565l.732-.038Zm2.59,0h-.641v-8.71l.641-.037Zm2.459,0h-.7v-8.856l.7-.045Zm2.676,0h-.737v-9.037l.737-.053Zm2.971,0h-.7V175.6l.7-.059Zm3.1,0h-.671v-9.545l.671-.064Zm2.721,0h-.652v-9.818l.652-.07Zm2.506,0H381.9v-10.1l.642-.077Zm2.2,0H384.2V174.487l.532-.07Zm2.19,0h-.533V174.187l.533-.078Zm2.19,0h-.532v-11.02l.532-.087Zm2.2,0h-.532V173.48l.532-.1Zm1.966,0h-.532V173.1q.275-.055.532-.11Zm1.883,0h-.532V172.7l.532-.126Zm1.768,0H396.4V172.254c.2-.054.376-.1.532-.15Zm4.743-.539c-.008.374-.67.539-.67.539l-.05-20.018a.211.211,0,0,0,.124-.217.345.345,0,0,0-.154-.254c0,.014,0,0,0,0h0c0-.016,0-.07-.014-.233-.021-.3.673-.505.673-.505s.1,20.314.09,20.688m7.276-27.147,1.581-.563,10.9-.853-3.844-2.131-.322-.611,9.316,3.632Zm25.574,26.026c-.033-.349-1.237-19.3-1.237-19.3s.675.159.675.443c0,.153,0,.2,0,.219h0s0,.014,0,0a.321.321,0,0,0-.128.245.2.2,0,0,0,.129.2l1.232,18.675s-.643-.127-.674-.475" transform="translate(-137.096 -70.418)" fill="#fff"/>
          <path id="Path_1346" data-name="Path 1346" d="M113.132,251.847l-4.191-5.128q-.41.032-.96.032-.812,0-1.729-.056v5.152h-.768V240.253q.75-.119,1.445-.182t1.515-.063a5.9,5.9,0,0,1,3.454.82,2.885,2.885,0,0,1,1.131,2.5,2.951,2.951,0,0,1-.817,2.2,4.4,4.4,0,0,1-2.467,1.1l4.287,5.222Zm-1.895-6.4a2.33,2.33,0,0,0,1.03-2.1,2.757,2.757,0,0,0-.392-1.546,2.3,2.3,0,0,0-1.24-.88,7.06,7.06,0,0,0-2.209-.285q-.629,0-1.122.04t-1.052.118v5.27q.926.055,1.7.055a6.162,6.162,0,0,0,3.283-.673" transform="translate(-49.766 -113.233)" fill="#fff"/>
          <path id="Path_1347" data-name="Path 1347" d="M144.332,251.3h6.357v.65h-7.134V240.217H150.6v.65h-6.27V245.6h5.457v.642h-5.457Z" transform="translate(-67.728 -113.333)" fill="#fff"/>
          <path id="Path_1348" data-name="Path 1348" d="M178.868,251.855a8.406,8.406,0,0,1-1.375-.321v-.666a9.419,9.419,0,0,0,2.795.444,3.957,3.957,0,0,0,2.432-.626,2.2,2.2,0,0,0,.816-1.862,2.325,2.325,0,0,0-.266-1.165,2.152,2.152,0,0,0-.838-.792,6.919,6.919,0,0,0-1.55-.595l-.533-.143a4.972,4.972,0,0,1-2.261-1.161,2.656,2.656,0,0,1-.742-1.954,2.868,2.868,0,0,1,.463-1.645,2.919,2.919,0,0,1,1.371-1.054,5.9,5.9,0,0,1,2.218-.369,10.217,10.217,0,0,1,1.275.083,7.674,7.674,0,0,1,1.17.235v.665a8.9,8.9,0,0,0-2.462-.332,3.994,3.994,0,0,0-2.423.61,2.079,2.079,0,0,0-.808,1.767,2.343,2.343,0,0,0,.253,1.137,2.074,2.074,0,0,0,.8.784,6.131,6.131,0,0,0,1.481.575l.532.143a5.3,5.3,0,0,1,2.362,1.192,2.662,2.662,0,0,1,.764,1.978,2.8,2.8,0,0,1-1.065,2.354,4.86,4.86,0,0,1-3.03.824,9.315,9.315,0,0,1-1.375-.107" transform="translate(-83.67 -113.205)" fill="#fff"/>
          <rect id="Rectangle_99" data-name="Rectangle 99" width="0.777" height="11.729" transform="translate(112.423 126.885)" fill="#fff"/>
          <path id="Path_1349" data-name="Path 1349" d="M238.181,251.793V240.254a16.568,16.568,0,0,1,2.785-.246,5.882,5.882,0,0,1,4.361,1.47,6.177,6.177,0,0,1,1.454,4.506,5.963,5.963,0,0,1-1.511,4.513,6.384,6.384,0,0,1-4.541,1.43q-1.2,0-2.549-.135m5.514-1.05a3.558,3.558,0,0,0,1.707-1.712,7.011,7.011,0,0,0,.568-3.047,7.283,7.283,0,0,0-.542-3.036,3.53,3.53,0,0,0-1.65-1.731,6.28,6.28,0,0,0-2.829-.559,14.527,14.527,0,0,0-1.991.143v10.382a15.629,15.629,0,0,0,1.843.1,6.729,6.729,0,0,0,2.895-.543" transform="translate(-112.372 -113.234)" fill="#fff"/>
          <path id="Path_1350" data-name="Path 1350" d="M279.55,251.3h6.357v.65h-7.134V240.217h7.047v.65h-6.27V245.6h5.458v.642H279.55Z" transform="translate(-131.523 -113.333)" fill="#fff"/>
          <path id="Path_1351" data-name="Path 1351" d="M322.19,240.217h.742v11.729H322.1l-7.169-10.6v10.6h-.751V240.217h.838l7.169,10.6Z" transform="translate(-148.229 -113.333)" fill="#fff"/>
          <path id="Path_1352" data-name="Path 1352" d="M354.078,250.575q-1.323-1.387-1.323-4.6,0-3.186,1.341-4.6A5.122,5.122,0,0,1,358,239.947a9.732,9.732,0,0,1,2.55.341v.658a8.075,8.075,0,0,0-1.27-.269,10.449,10.449,0,0,0-1.314-.08,5.142,5.142,0,0,0-2.423.511,3.28,3.28,0,0,0-1.467,1.688,10.18,10.18,0,0,0,.009,6.341,3.254,3.254,0,0,0,1.458,1.68,5.021,5.021,0,0,0,2.345.5,8.092,8.092,0,0,0,1.31-.1,9.712,9.712,0,0,0,1.353-.333v.666a8.583,8.583,0,0,1-2.681.42,5,5,0,0,1-3.794-1.387" transform="translate(-166.427 -113.205)" fill="#fff"/>
          <rect id="Rectangle_100" data-name="Rectangle 100" width="0.777" height="11.729" transform="translate(205.478 126.885)" fill="#fff"/>
          <path id="Path_1353" data-name="Path 1353" d="M421.33,251.946l-1.581-4.1h-5.362l-1.58,4.1H412l4.558-11.729h1.022l4.566,11.729Zm-6.7-4.747H419.5l-2.428-6.317Z" transform="translate(-194.38 -113.333)" fill="#fff"/>
          <path id="Path_1354" data-name="Path 1354" d="M451.949,251.947V240.218h.777V251.3h6.1v.65Z" transform="translate(-213.226 -113.333)" fill="#fff"/>
        </g>
      </g>
    </g>
  </g>
</svg>
