<?xml version="1.0" encoding="UTF-8"?>
<svg id="Camada_2" xmlns="http://www.w3.org/2000/svg" viewBox="0 0 271.65 29.16">
  <defs>
    <style>
      .cls-1 {
        fill: #eae9e8;
      }
    </style>
  </defs>
  <g id="Camada_1-2" data-name="Camada_1">
    <g>
      <polygon class="cls-1" points="148.59 0 136.79 29.12 138.28 29.12 148.69 3.08 155.42 19.74 156.12 21.47 159.21 29.13 161.67 29.13 159 22.64 158.28 20.88 149.7 0 148.59 0"/>
      <polygon class="cls-1" points="152.48 0 161.16 21.47 161.87 23.23 164.25 29.13 166.71 29.13 164.77 24.4 164.03 22.61 154.99 .64 154.73 0 152.48 0"/>
      <polygon class="cls-1" points="0 0 0 29.16 2.29 29.16 2.29 2.02 2.29 1.08 2.29 0 0 0"/>
      <path class="cls-1" d="M18.03,15.18c-1.2.32-2.62.46-4.26.46h-6.6V1.08h6.6c1.62,0,3.02.15,4.21.47,3.17.85,4.78,2.94,4.78,6.73,0,4-1.61,6.06-4.73,6.9M13.93,0H4.87v1.08h0v28.08h2.29v-12.44h6.64c7.32,0,11.36-2.29,11.36-8.41S21.17,0,13.93,0"/>
      <polygon class="cls-1" points="51.42 .07 33.43 29.16 54.11 29.16 54.11 28.04 36.69 28.04 53.95 .07 51.42 .07"/>
      <polygon class="cls-1" points="46.32 .07 28.33 29.16 30.87 29.16 48.85 .07 46.32 .07"/>
      <polygon class="cls-1" points="105.87 0 105.87 1.1 121.92 1.1 104.59 29.13 107.14 29.13 116.38 14.19 125.15 0 105.87 0"/>
      <polygon class="cls-1" points="127.75 0 109.72 29.13 111.12 29.13 126.67 29.13 130.39 29.13 130.39 28.04 126.67 28.04 112.96 28.04 129.85 .67 129.85 0 127.75 0"/>
      <polygon class="cls-1" points="77.2 0 65.39 29.12 66.89 29.12 77.3 3.08 84.03 19.74 84.73 21.47 87.82 29.13 90.28 29.13 87.61 22.64 86.89 20.88 78.31 0 77.2 0"/>
      <polygon class="cls-1" points="81.09 0 89.77 21.47 90.48 23.23 92.86 29.13 95.32 29.13 93.38 24.4 92.64 22.61 83.6 .64 83.33 0 81.09 0"/>
      <path class="cls-1" d="M201.85,3.11v2.57h.68c1,0,1.5-.51,1.5-1.31,0-.83-.52-1.26-1.54-1.26h-.64ZM201.85.65v2.16h.63c.88,0,1.27-.39,1.27-1.06s-.39-1.1-1.32-1.1h-.58ZM200.73.35h1.82c1.58,0,2.31.56,2.31,1.37,0,.69-.49,1.11-1.09,1.21.68.06,1.47.47,1.47,1.45s-.73,1.6-2.56,1.6h-1.94V.35Z"/>
      <polygon class="cls-1" points="209.61 .35 209.61 5.98 213.47 5.98 213.47 5.66 210.73 5.66 210.73 3.25 212.91 3.25 212.91 2.94 210.73 2.94 210.73 .66 213.38 .66 213.38 .35 209.61 .35"/>
      <path class="cls-1" d="M219.42.94l1.12,3.01h-2.32l1.21-3.01ZM219.26.35l-2.26,5.62h.42l.68-1.69h2.57l.63,1.69h1.16l-2.1-5.62h-1.09Z"/>
      <path class="cls-1" d="M229.23,5.69c.59,0,1-.15,1.45-.46l.14.16c-.59.49-1.21.67-2,.67-1.71,0-2.96-1.07-2.96-2.89s1.24-2.88,2.99-2.88c.87,0,1.4.23,1.9.68l-.15.15c-.47-.34-.9-.45-1.41-.45-1.26,0-2.15.91-2.15,2.51s.89,2.52,2.19,2.52"/>
      <polygon class="cls-1" points="238.79 .35 238.79 2.93 236.16 2.93 236.16 .35 235.03 .35 235.03 5.98 236.16 5.98 236.16 3.24 238.79 3.24 238.79 5.98 239.92 5.98 239.92 .35 238.79 .35"/>
      <path class="cls-1" d="M201.85,12.93v2.48h.55c.97,0,1.5-.39,1.5-1.21s-.52-1.28-1.5-1.28h-.55ZM200.73,12.62h1.86c1.48,0,2.47.49,2.47,1.58,0,.8-.58,1.28-1.5,1.46l1.93,2.59h-1.29l-1.84-2.51h-.51v2.51h-1.13v-5.62Z"/>
      <polygon class="cls-1" points="209.62 12.62 213.39 12.62 213.39 12.93 210.73 12.93 210.73 15.21 212.92 15.21 212.92 15.52 210.73 15.52 210.73 17.93 213.47 17.93 213.47 18.25 209.62 18.25 209.62 12.62"/>
      <path class="cls-1" d="M218.47,13.72c0,1.23,2.91.99,2.91,2.97,0,1.04-.92,1.64-2.02,1.64-.97,0-1.64-.43-2.05-.83l.15-.15c.37.31,1.03.64,1.75.64.78,0,1.26-.37,1.26-.95,0-1.46-2.93-1.24-2.93-3.02,0-.88.71-1.46,1.96-1.46.79,0,1.25.32,1.62.66l-.16.14c-.39-.32-.83-.47-1.4-.47-.63,0-1.11.28-1.11.84"/>
      <rect class="cls-1" x="225.75" y="12.62" width="1.13" height="5.63"/>
      <path class="cls-1" d="M232.77,12.93v5h.45c1.7,0,2.43-.95,2.43-2.49,0-1.41-.76-2.51-2.43-2.51h-.45ZM231.65,12.62h1.54c2.34,0,3.66,1.2,3.66,2.83s-1.35,2.8-3.66,2.8h-1.54v-5.62Z"/>
      <polygon class="cls-1" points="241.28 12.62 245.05 12.62 245.05 12.93 242.4 12.93 242.4 15.21 244.59 15.21 244.59 15.52 242.4 15.52 242.4 17.93 245.14 17.93 245.14 18.25 241.28 18.25 241.28 12.62"/>
      <path class="cls-1" d="M250.5,12.62l3.11,4.2c.07.09.14.22.19.35v-4.56h.39v5.62h-.88l-2.95-3.91c-.18-.24-.33-.48-.43-.72v4.63h-.4v-5.62h.96Z"/>
      <path class="cls-1" d="M261.99,17.96c.59,0,1-.15,1.45-.46l.14.16c-.59.49-1.21.67-2,.67-1.71,0-2.96-1.07-2.96-2.89s1.24-2.88,2.99-2.88c.87,0,1.4.23,1.9.68l-.15.15c-.47-.34-.9-.45-1.41-.45-1.26,0-2.15.91-2.15,2.51s.89,2.52,2.19,2.52"/>
      <polygon class="cls-1" points="267.79 12.62 267.79 18.25 271.65 18.25 271.65 17.93 268.91 17.93 268.91 15.52 271.09 15.52 271.09 15.21 268.91 15.21 268.91 12.94 271.56 12.94 271.56 12.62 267.79 12.62"/>
      <rect class="cls-1" x="200.17" y="28.48" width="13.79" height=".35"/>
    </g>
  </g>
</svg>